<svg width="500" height="500" viewBox="0 0 500 500" fill="none" xmlns="http://www.w3.org/2000/svg">
<path d="M405.048 252.644C362.513 227.356 340.859 232.851 273.094 139.309C231.842 82.364 110.543 77.94 78.27 167.37C61.32 214.342 65.944 215.613 84.107 256.43C102.272 297.249 42.935 327.282 47.629 373.454C59.376 489.007 257.626 419.162 326.039 438.039C447.479 471.549 497.619 307.678 405.048 252.644Z" fill="#D8D7FF"/>
<path d="M177.15 321.402C250.991 321.402 310.851 261.542 310.851 187.701C310.851 113.86 250.991 54 177.15 54C103.309 54 43.449 113.86 43.449 187.701C43.449 261.542 103.309 321.402 177.15 321.402Z" fill="#C3C3F4"/>
<path d="M177.15 305.797C242.373 305.797 295.246 252.924 295.246 187.701C295.246 122.478 242.373 69.605 177.15 69.605C111.927 69.605 59.054 122.478 59.054 187.701C59.054 252.924 111.927 305.797 177.15 305.797Z" fill="#FEFEFE"/>
<path d="M233.674 136.448C233.614 136.904 233.41 137.346 233.06 137.698L177.673 193.525C176.825 194.38 175.441 194.385 174.586 193.536C173.728 192.692 173.718 191.31 174.574 190.449L229.961 134.622C230.81 133.767 232.193 133.762 233.048 134.611C233.552 135.11 233.76 135.794 233.674 136.448Z" fill="#695CC6"/>
<path d="M177.15 194.251C173.532 194.251 170.6 191.32 170.6 187.702V122.911C170.6 119.293 173.532 116.361 177.15 116.361C180.768 116.361 183.699 119.293 183.699 122.911V187.702C183.699 191.32 180.768 194.251 177.15 194.251Z" fill="#FCE885"/>
<path d="M181.008 85.285C181.008 87.415 179.281 89.142 177.151 89.142C175.02 89.142 173.293 87.415 173.293 85.285C173.293 83.154 175.02 81.427 177.151 81.427C179.281 81.427 181.008 83.154 181.008 85.285Z" fill="#D8D7FF"/>
<path d="M181.008 290.44C181.008 292.571 179.281 294.298 177.151 294.298C175.02 294.298 173.293 292.57 173.293 290.44C173.293 288.31 175.02 286.583 177.151 286.583C179.281 286.582 181.008 288.309 181.008 290.44Z" fill="#D8D7FF"/>
<path d="M279.728 191.72C277.597 191.72 275.87 189.993 275.87 187.862C275.87 185.731 277.597 184.004 279.728 184.004C281.859 184.004 283.586 185.731 283.586 187.862C283.586 189.993 281.858 191.72 279.728 191.72Z" fill="#D8D7FF"/>
<path d="M74.573 191.72C72.442 191.72 70.715 189.993 70.715 187.862C70.715 185.731 72.442 184.004 74.573 184.004C76.704 184.004 78.431 185.731 78.431 187.862C78.43 189.993 76.703 191.72 74.573 191.72Z" fill="#D8D7FF"/>
<path d="M234.142 102.487C233.027 104.302 230.651 104.869 228.835 103.754C227.019 102.639 226.453 100.263 227.568 98.447C228.683 96.632 231.059 96.065 232.874 97.18C234.69 98.296 235.257 100.671 234.142 102.487Z" fill="#D8D7FF"/>
<path d="M126.732 277.277C125.616 279.092 123.241 279.659 121.425 278.543C119.61 277.428 119.043 275.052 120.158 273.237C121.274 271.422 123.649 270.855 125.465 271.97C127.28 273.086 127.847 275.462 126.732 277.277Z" fill="#D8D7FF"/>
<path d="M269.577 143.205C267.695 144.203 265.36 143.487 264.362 141.604C263.363 139.722 264.08 137.387 265.962 136.389C267.845 135.391 270.179 136.107 271.177 137.99C272.176 139.872 271.46 142.207 269.577 143.205Z" fill="#D8D7FF"/>
<path d="M88.3379 239.335C86.4559 240.333 84.121 239.617 83.123 237.734C82.124 235.852 82.8409 233.517 84.7229 232.519C86.6049 231.521 88.94 232.237 89.938 234.12C90.937 236.002 90.2199 238.337 88.3379 239.335Z" fill="#D8D7FF"/>
<path d="M264.735 241.397C262.877 240.355 262.215 238.003 263.257 236.145C264.299 234.287 266.651 233.625 268.509 234.667C270.367 235.709 271.029 238.06 269.987 239.919C268.945 241.777 266.593 242.439 264.735 241.397Z" fill="#D8D7FF"/>
<path d="M85.7919 141.057C83.9339 140.015 83.2719 137.663 84.3139 135.805C85.3559 133.947 87.7079 133.285 89.5659 134.327C91.4239 135.369 92.0859 137.72 91.0439 139.579C90.0019 141.437 87.6499 142.099 85.7919 141.057Z" fill="#D8D7FF"/>
<path d="M225.465 278.431C224.392 276.59 225.015 274.229 226.856 273.156C228.696 272.084 231.058 272.706 232.131 274.547C233.204 276.388 232.582 278.75 230.741 279.823C228.9 280.894 226.538 280.272 225.465 278.431Z" fill="#D8D7FF"/>
<path d="M122.169 101.178C121.096 99.337 121.719 96.975 123.56 95.902C125.4 94.83 127.762 95.452 128.835 97.293C129.908 99.134 129.285 101.496 127.445 102.569C125.604 103.641 123.242 103.019 122.169 101.178Z" fill="#D8D7FF"/>
<path d="M374.439 321.474C374.439 321.474 379.62 265.16 382.726 245.025C383.531 239.808 386.348 242.337 386.358 242.623C386.446 245.152 377.076 325.281 377.076 325.281C377.076 325.281 359.458 436.398 356.944 440.271C356.016 441.704 352.788 444.964 353.839 442.207C353.839 442.207 373.928 329.141 374.439 321.474Z" fill="#664666"/>
<path d="M382 304.636C382.103 305.133 382.239 305.638 382.765 306.032C383.29 306.425 384.07 306.575 384.9 306.81C388.351 307.782 388.091 306.328 388.203 305.315C388.275 304.669 387.771 304.04 387.771 304.04C387.308 303.801 385.923 303.21 385.303 303.143C383.587 302.952 381.441 301.968 382 304.636ZM396.819 276.72C396.649 276.023 397.02 274.558 395.164 274.525C394.505 274.513 392.619 275.403 391.806 275.53C390.799 275.687 388.5 275.288 387.902 275.78C387.304 276.275 386.085 277.15 386.668 278.2C387.464 279.634 388.179 279.542 388.899 279.828C389.619 280.113 391.064 279.78 392.071 279.621C393.075 279.465 394.589 279.354 395.176 279.027C396.07 278.529 396.98 277.381 396.819 276.72ZM333.009 287.658C336.542 294.378 349.312 300.134 354.703 302.377C358.933 304.137 366.863 304.52 365.937 300.736C365.012 296.95 355.581 296.871 348.979 293.965C341.065 290.491 336.954 286.85 333.997 278.276C332.56 274.107 337.803 261.372 341.866 259.154C344.565 271.79 350.957 278.349 355.772 282.447C358.953 285.154 363.206 287.089 365.068 283.182C366.929 279.273 361.62 277.102 358.064 273.724C352.011 267.983 350.575 261.288 350.009 257.031C349.356 252.12 354.994 246.086 362.329 244.472C360.626 253.477 368.481 263.25 371.733 265.337C374.983 267.425 376.579 264.662 375.769 261.187C375.154 258.561 371.717 244.3 372.106 242.405C373.546 235.335 383.922 232.226 388.085 228.167C392.027 234.274 399.214 239.79 398.047 245.252C397.642 247.149 391.557 260.364 390.392 262.793C388.848 266.008 389.806 269.057 393.431 267.72C397.055 266.387 406.85 258.553 407.139 249.393C413.948 252.561 420.545 259.623 418.839 264.275C417.359 268.311 411.638 273.591 404.485 277.881C400.279 280.412 394.085 283.512 395.052 287.731C396.023 291.951 401.081 289.494 405.297 287.886C409.199 286.397 418.55 279.917 423.929 268.172C427.413 271.213 429.448 283.2 427.567 287.192C424.825 293.017 419.299 298.1 408.908 300.063C401.817 301.401 393.131 300.041 391.406 303.532C389.68 307.03 397.861 307.129 403.066 307.009C407.649 306.902 425.655 300.143 427.382 296.645C430.857 302.746 428.838 311.23 425.573 315.816C420.555 322.864 411.669 322.759 405.622 321.838C399.082 320.841 388.683 317.364 390.093 322.012C393.497 333.229 414.182 327.362 417.746 327.055C417.827 340.129 402.546 347.453 390.113 339.962C382.557 335.408 381.377 326.901 377.076 325.281C377.258 324.043 383.751 263.831 384.147 260.784C384.611 257.195 385.165 247.912 384.733 246.928C384.101 247.792 382.623 256.976 382.303 260.582C382.022 263.642 374.295 324.105 374.201 325.35C369.655 325.996 369.994 333.267 361.464 335.514C352.371 337.903 337.042 336.493 335.636 316.31C339.05 317.388 348.099 320.281 353.219 321.433C357.286 322.348 363.307 322.218 363.207 319.059C363.053 314.201 351.347 315.497 344.75 315.05C338.65 314.637 334.071 313.722 330.506 308.362C328.518 305.373 327.973 292.185 333.009 287.658ZM368.311 315.909C366.651 316.397 366.685 317.518 366.966 318.493C367.132 319.058 367.279 319.872 368.073 319.992C368.651 320.079 370.631 319.508 371.331 319.303C372.032 319.096 372.635 318.763 373.074 318.372C373.668 317.845 374.453 317.591 374.287 317.029C374.152 316.566 373.529 315.985 372.653 315.683C371.979 315.451 369.179 315.654 368.311 315.909ZM375.816 286.205C374.216 285.566 370.274 284.71 369.352 285.15C366.463 286.522 367.26 288.947 367.661 289.464C368.063 289.982 370.943 289.639 371.777 289.851C372.44 290.019 373.329 290.937 373.611 290.996C374.89 291.261 376.352 289.961 376.659 289.188C377.036 288.239 377.42 286.841 375.816 286.205Z" fill="#A3719F"/>
<path d="M326.756 344.013C326.756 344.013 304.896 277.668 298.5 253.33C296.843 247.023 301.279 248.501 301.432 248.82C302.777 251.642 331.618 347.027 331.618 347.027C331.618 347.027 340.602 384.644 339.662 390.269C339.317 392.35 338.26 391.886 337.792 392.175C337.323 392.462 336.233 390.675 336.065 387.034C336.065 387.034 329.953 352.95 326.756 344.013Z" fill="#492645"/>
<path d="M327.03 321.216C327.392 321.728 327.794 322.233 328.584 322.422C329.372 322.608 330.33 322.394 331.386 322.252C335.774 321.654 334.763 320.134 334.391 318.932C334.154 318.166 333.275 317.7 333.275 317.7C332.632 317.657 330.773 317.669 330.037 317.899C328 318.527 325.085 318.469 327.03 321.216ZM330.072 282.296C329.537 281.59 329.236 279.748 327.116 280.625C326.363 280.936 324.665 282.873 323.808 283.417C322.745 284.09 319.944 284.77 319.508 285.622C319.075 286.477 318.124 288.068 319.302 288.971C320.91 290.203 321.675 289.746 322.631 289.716C323.587 289.684 325.06 288.596 326.123 287.919C327.183 287.247 328.844 286.376 329.348 285.717C330.115 284.713 330.58 282.966 330.072 282.296ZM263.173 326.106C270.484 331.979 287.785 332.211 294.996 332.097C300.654 332.008 309.826 328.537 306.915 324.707C304.003 320.874 293.28 325.428 284.371 325.387C273.695 325.348 267.246 323.248 259.673 314.991C255.992 310.976 255.661 293.968 259.172 289.455C268.451 302.44 278.922 306.723 286.394 308.994C291.331 310.494 297.101 310.592 297.286 305.249C297.47 299.904 290.386 300.059 284.694 297.983C275.01 294.46 270.087 287.582 267.35 283.04C264.192 277.799 267.608 268.187 275.122 262.746C277.627 273.786 291.337 280.989 296.049 281.751C300.759 282.515 301.206 278.6 298.578 275.062C296.589 272.389 285.673 257.927 285.18 255.589C283.329 246.871 293.554 238.24 296.27 231.592C303.743 236.569 314.601 239.279 315.968 246.041C316.443 248.389 316.057 266.356 315.933 269.681C315.768 274.083 318.354 277.066 321.802 273.767C325.251 270.472 332.489 256.775 328.307 246.256C337.581 246.492 348.531 251.244 348.889 257.353C349.199 262.654 345.319 271.452 339.328 279.834C335.809 284.772 330.32 291.334 333.493 295.638C336.671 299.94 341.19 294.666 345.175 290.768C348.862 287.161 356.264 275.215 356.574 259.261C362.018 260.991 370.226 273.567 370.06 279.016C369.823 286.965 366.065 295.444 355.26 302.785C347.886 307.793 337.376 310.529 337.141 315.333C336.909 320.145 346.225 316.229 352.062 313.53C357.201 311.152 374.271 294.629 374.504 289.817C381.445 295.017 383.335 305.623 381.894 312.425C379.68 322.88 369.563 327.137 362.259 329.071C354.36 331.161 340.867 332.343 344.753 336.915C354.132 347.946 374.676 331.114 378.563 329.011C385.092 343.781 371.389 359.603 353.615 357.239C342.813 355.801 337.288 346.744 331.618 347.027C331.215 345.535 308.922 274.128 307.87 270.482C306.629 266.188 302.686 255.399 301.711 254.498C301.42 255.788 304.268 266.92 305.682 271.162C306.871 274.767 327.89 347.065 328.396 348.522C323.564 351.492 327.528 359.562 318.972 366.308C309.848 373.492 291.789 379.442 280.258 357.271C284.656 356.811 296.331 355.633 302.699 354.416C307.756 353.451 314.513 350.338 312.845 346.809C310.279 341.382 297.655 348.614 289.962 351.357C282.848 353.894 277.211 355.111 270.532 350.794C266.808 348.387 259.697 333.714 263.173 326.106ZM317.075 340.727C315.435 342.097 316.026 343.351 316.824 344.316C317.29 344.874 317.858 345.723 318.817 345.469C319.515 345.283 321.477 343.662 322.168 343.084C322.86 342.505 323.379 341.83 323.684 341.171C324.097 340.281 324.861 339.607 324.397 339.053C324.016 338.595 323.024 338.243 321.883 338.333C321.004 338.402 317.933 340.01 317.075 340.727ZM310.95 303.382C308.823 303.446 303.936 304.418 303.109 305.369C300.511 308.346 302.608 310.701 303.318 311.089C304.028 311.478 307.122 309.67 308.171 309.5C309.004 309.364 310.463 309.966 310.812 309.894C312.392 309.565 313.407 307.372 313.375 306.345C313.334 305.086 313.081 303.313 310.95 303.382Z" fill="#695CC6"/>
<path d="M384.506 404.91C384.506 404.91 411.892 347.414 423.008 327.345C425.888 322.145 427.881 325.913 427.781 326.22C426.89 328.927 385.812 409.959 385.812 409.959C385.812 409.959 368.037 440.41 363.874 443.525C362.336 444.679 361.932 443.707 361.441 443.603C360.951 443.497 361.358 441.632 363.541 439.127C363.541 439.127 380.983 412.814 384.506 404.91Z" fill="#695CC6"/>
<path d="M399.047 390.058C398.963 390.624 398.91 391.21 399.312 391.831C399.714 392.45 400.48 392.913 401.266 393.483C404.535 395.853 404.826 394.215 405.338 393.188C405.665 392.533 405.378 391.673 405.378 391.673C404.981 391.24 403.748 390.077 403.119 389.765C401.38 388.896 399.495 387.022 399.047 390.058ZM425.569 366.324C425.661 365.521 426.623 364.118 424.674 363.361C423.982 363.092 421.643 363.299 420.734 363.117C419.61 362.891 417.334 361.575 416.511 361.862C415.687 362.152 414.058 362.602 414.266 363.94C414.55 365.765 415.341 365.946 415.991 366.528C416.641 367.109 418.297 367.32 419.424 367.543C420.546 367.768 422.189 368.24 422.937 368.124C424.074 367.944 425.482 367.085 425.569 366.324ZM353.881 353.055C355 361.531 366.255 372.582 371.08 377.05C374.865 380.556 383.096 384.046 383.59 379.687C384.085 375.327 374.15 371.573 368.304 365.934C361.293 359.183 358.365 353.737 358.575 343.525C358.678 338.56 369.174 327.142 374.331 326.38C372.267 340.783 376.47 350.202 379.964 356.406C382.272 360.505 386.014 364.204 389.502 360.799C392.99 357.392 388.223 353.032 385.78 348.079C381.617 339.657 382.704 332.023 383.763 327.305C384.983 321.862 393.289 317.678 401.669 318.826C396.366 327.68 400.864 341.064 403.489 344.534C406.111 348.005 408.872 345.706 409.369 341.719C409.741 338.705 411.658 322.296 412.805 320.446C417.077 313.535 429.253 314.287 435.23 311.617C437.02 319.605 442.469 328.23 439.11 333.548C437.944 335.395 426.372 346.993 424.195 349.106C421.313 351.903 421.138 355.498 425.489 355.496C429.838 355.497 443.236 351.03 447.106 341.462C453.069 347.459 457.293 357.489 453.681 361.741C450.546 365.43 442.447 368.784 433.218 370.534C427.788 371.572 420.037 372.438 419.417 377.274C418.801 382.111 425.102 381.483 430.184 381.424C434.886 381.369 447.289 378.158 457.544 367.84C460.043 372.409 457.529 385.868 453.988 389.355C448.824 394.444 441.006 397.665 429.261 395.697C421.247 394.352 412.597 389.535 409.415 392.553C406.231 395.578 414.837 398.866 420.385 400.764C425.27 402.434 446.928 402.297 450.113 399.272C451.412 407.071 445.976 415.251 440.742 418.827C432.697 424.323 423.348 420.755 417.316 417.429C410.793 413.831 401.156 406.11 400.838 411.571C400.071 424.749 424.213 426.597 428.099 427.66C423.098 441.508 404.1 443.302 393.875 430.548C387.662 422.796 389.725 413.346 385.81 409.961C386.484 408.724 416.773 347.619 418.377 344.553C420.264 340.941 424.461 331.347 424.387 330.139C423.383 330.806 418.248 339.936 416.507 343.623C415.02 346.748 383.33 407.636 382.745 408.916C377.69 407.829 375.219 415.646 365.33 414.701C354.791 413.688 339.141 406.234 345.508 384.358C348.696 386.825 357.133 393.403 362.096 396.613C366.037 399.162 372.451 401.367 373.575 397.991C375.303 392.797 362.427 389.612 355.63 386.574C349.344 383.764 344.862 381.016 343.179 373.964C342.242 370.029 346.798 355.88 353.881 353.055ZM380.195 396.646C378.251 396.515 377.851 397.714 377.769 398.854C377.725 399.515 377.564 400.433 378.356 400.869C378.933 401.186 381.248 401.353 382.067 401.408C382.888 401.462 383.655 401.345 384.271 401.102C385.104 400.776 386.032 400.813 386.075 400.155C386.112 399.613 385.68 398.757 384.872 398.097C384.25 397.588 381.212 396.714 380.195 396.646ZM399.684 368.175C398.242 366.878 394.409 364.439 393.264 364.545C389.677 364.871 389.575 367.744 389.799 368.447C390.023 369.151 393.2 369.908 393.998 370.457C394.633 370.892 395.215 372.208 395.49 372.38C396.739 373.158 398.789 372.353 399.415 371.655C400.181 370.799 401.131 369.472 399.684 368.175Z" fill="#492645"/>
<path d="M140.817 314.379L85.363 316.195C85.363 316.195 68.704 319.606 66.958 330.849C63.912 350.463 99.473 434.717 99.473 434.717H211.552L162.75 327.84C158.791 319.368 150.162 314.073 140.817 314.379Z" fill="#695CC6"/>
<path d="M172.298 286.285C172.298 286.285 221.971 315.321 219.771 329.653C218.251 339.555 191.573 364.219 191.573 364.219L182.613 345.816L199.629 328.836L159.673 294.058" fill="#6E4127"/>
<path d="M79.572 380.353C79.572 380.353 79.736 387.874 74.55 397.439C74.55 397.439 77.214 408.333 133.122 400.151C189.03 391.969 189.759 386.99 189.759 386.99L171.314 353.093H79.723L79.572 380.353Z" fill="#382036"/>
<path d="M116.252 368.143C112.566 366.015 91.702 363.044 91.702 363.044L90.146 320.551L79.266 313.604C79.266 313.604 69.802 353.76 68.746 361.1C67.89 367.05 72.059 377.648 79.572 380.352C87.086 383.056 113.545 392.579 113.545 392.579C113.545 392.579 120.822 379.244 116.252 368.143Z" fill="#6E4127"/>
<path d="M59.376 320.185C59.376 320.185 65.749 349.098 91.702 363.044C101.037 371.168 171.258 367.351 182.85 353.831C178.378 325.439 175.193 296.045 175.193 296.045C175.193 296.045 63.907 316.759 59.376 320.185Z" fill="#382036"/>
<path d="M156.277 342.4C154.994 340.931 153.842 339.385 152.817 337.618C141.403 343.729 122.503 331.273 128.896 348.37C129.45 349.851 129.33 349.436 129.723 351.97C129.723 351.97 141.868 353.441 150.836 347.683C157.327 343.516 156.233 342.349 156.233 342.349" fill="#6E4127"/>
<path opacity="0.07" d="M154.827 340.626C154.827 340.626 137.554 349.394 131.059 348.907C131.059 348.907 139.469 350.846 156.233 342.349L154.827 340.626Z" fill="#070707"/>
<path d="M137.521 438.662L121.495 399.585C121.495 399.585 108.863 397.101 106.218 393.383C102.997 388.854 104.628 379.772 107.643 369.797C108.506 366.943 109.328 364.365 112.876 362.867C125.415 357.574 129.722 351.972 129.722 351.972C129.722 351.972 140.002 351.575 146.385 348.82C155.773 344.767 156.032 342.135 156.032 342.135C156.032 342.135 167.27 342.54 187.758 337.662C191.781 343.809 198.239 361.082 198.239 361.082L185.704 371.098L221.099 431.296" fill="#FCE885"/>
<path d="M156.271 436.094C143.286 429.431 132.504 426.189 121.778 400.15L136.326 435.747" fill="#E2CA66"/>
<path opacity="0.07" d="M178.374 356.415L187.325 369.801L185.705 371.096L178.374 356.415Z" fill="#070707"/>
<path d="M199.63 408.271C198.998 408.38 198.437 408.481 198.069 408.595Z" fill="#F8B986"/>
<path d="M156.033 342.133C156.033 342.133 155.774 344.766 146.386 348.818C140.003 351.573 129.723 351.97 129.723 351.97C129.723 351.97 126.988 354.7 126.24 355.245C126.24 355.245 133.94 358.291 144.694 354.358C153.163 351.261 157.722 347.378 159.147 344.251C160.247 341.838 160.027 342.04 160.027 342.04C158.975 342.233 156.033 342.133 156.033 342.133Z" fill="#E2CA66"/>
<path d="M97.047 268.108C97.047 268.108 89.736 272.93 83.123 280.887C76.345 289.045 70.306 300.505 73.646 313.442C75.568 320.894 78.716 327.623 82.944 333.303C93.222 347.104 109.856 354.684 130.672 351.252C145.361 348.83 159.559 341.516 167.664 329.353C175.773 317.189 176.118 297.52 168.132 284.149C160.147 270.778 150.764 265.555 138.135 262.623C125.505 259.693 111.31 261.705 97.047 268.108Z" fill="#6E4127"/>
<path d="M135.097 319.14C138.311 321.091 143.386 320.224 142.875 315.522C142.702 313.953 145.133 313.568 145.306 315.147C145.596 317.803 144.491 320.485 142.108 321.85C139.383 323.412 136.207 322.686 133.667 321.145C132.31 320.32 133.751 318.326 135.097 319.14Z" fill="#5E3521"/>
<path d="M137.969 312.09C137.997 312.08 138.025 312.069 138.05 312.057C138.179 311.995 139.305 311.465 139.978 310.977C141.606 309.789 141.903 308.589 141.868 307.792C141.83 306.968 141.396 305.751 139.54 304.643C137.896 303.659 136.67 300.906 136.337 299.926C136.16 299.411 135.596 299.132 135.082 299.31C135.072 299.314 135.065 299.316 135.06 299.318C134.554 299.502 134.288 300.056 134.462 300.567C134.519 300.738 135.917 304.788 138.526 306.344C139.371 306.85 139.866 307.41 139.89 307.882C139.91 308.325 139.527 308.854 138.815 309.373C138.373 309.693 137.51 310.123 137.214 310.262C136.717 310.494 136.502 311.085 136.734 311.578C136.954 312.047 137.492 312.263 137.969 312.09Z" fill="#5E3521"/>
<path opacity="0.32" d="M174.373 307.462C173.317 308.585 171.989 309.481 170.439 310.045C165.146 311.97 159.295 309.24 157.369 303.945C155.444 298.652 158.174 292.797 163.467 290.872C165.452 290.15 167.517 290.082 169.422 290.559" fill="#5E3521"/>
<path opacity="0.32" d="M92.63 331.808C94.684 337.455 100.924 340.369 106.57 338.316C112.217 336.262 115.13 330.021 113.077 324.373C111.024 318.728 104.782 315.815 99.135 317.869C93.489 319.922 90.577 326.163 92.63 331.808Z" fill="#5E3521"/>
<g opacity="0.37">
<path d="M91.379 335.432C91.832 335.267 92.112 334.799 92.021 334.308C91.499 331.557 93.787 330.319 93.884 330.267C94.37 330.012 94.562 329.41 94.311 328.922C94.057 328.439 93.462 328.246 92.975 328.493C91.681 329.146 89.413 331.283 90.056 334.682C90.161 335.222 90.683 335.578 91.225 335.475C91.282 335.464 91.333 335.448 91.379 335.432Z" fill="#CD995F"/>
</g>
<path d="M139.835 248.613C116.869 237.896 84.108 256.431 84.108 256.431C54.529 274.721 50.809 297.104 61.35 326.091C68.108 344.676 98.199 361.486 120.55 352.069C103.704 350.208 99.216 340.626 96.083 326.357C94.96 321.241 94.953 313.901 94.953 313.901C124.444 301.656 147.914 265.717 147.914 265.717C155.087 268.966 162.419 280.603 167.416 291.541C170.891 299.739 175.225 314.561 168.69 327.697C159.441 346.288 178.377 325.44 178.377 325.44C178.377 325.44 176.513 313.278 175.093 305.443C177.814 280.71 160.688 258.341 139.835 248.613Z" fill="#382036"/>
<path d="M152.876 291.873C154.217 293.391 155.207 296.612 153.044 297.923C150.751 299.312 148.735 296.964 147.939 295.042C147.713 294.497 147.809 293.882 148.36 293.568C148.825 293.304 149.61 293.449 149.834 293.989C150.074 294.569 150.857 296.529 151.827 296.111C152.717 295.727 151.725 293.842 151.327 293.392C150.406 292.349 151.951 290.826 152.876 291.873Z" fill="#2A2A27"/>
<path d="M114.709 310.546C116.05 312.064 117.04 315.285 114.877 316.596C112.584 317.985 110.568 315.637 109.772 313.715C109.546 313.17 109.642 312.555 110.193 312.241C110.658 311.977 111.443 312.122 111.667 312.662C111.907 313.242 112.69 315.202 113.66 314.784C114.55 314.4 113.558 312.515 113.16 312.065C112.239 311.021 113.784 309.499 114.709 310.546Z" fill="#2A2A27"/>
<path d="M251.182 429.933L268.638 366.012C269.647 362.317 273.003 359.755 276.833 359.755H326.755L350.504 429.933H251.182Z" fill="#8E618D"/>
<path d="M300.385 433.033H186.067V430.632C186.067 428.245 188.002 426.311 190.388 426.311H300.384V433.033H300.385Z" fill="#8E618D"/>
<path d="M257.243 432.984L275.606 366.004C276.618 362.313 279.972 359.755 283.799 359.755H363.353C368.934 359.755 373 365.046 371.561 370.439L354.884 432.984H257.243Z" fill="#A3719F"/>
<path d="M325.963 399.834C323.446 402.784 319.588 403.624 317.344 401.71C315.101 399.796 315.323 395.853 317.839 392.904C320.356 389.954 324.214 389.114 326.457 391.028C328.701 392.941 328.48 396.884 325.963 399.834Z" fill="#8E618D"/>
<path d="M448.217 443.988H56.986C53.77 443.988 51.162 441.38 51.162 438.164C51.162 434.947 53.77 432.34 56.986 432.34H448.217C451.433 432.34 454.041 434.948 454.041 438.164C454.041 441.38 451.434 443.988 448.217 443.988Z" fill="#C3C3F4"/>
<path d="M248.938 118.915H197.74C195.696 118.915 194.04 117.258 194.04 115.215V73.798C194.04 71.755 195.697 70.098 197.74 70.098H248.938C250.982 70.098 252.638 71.755 252.638 73.798V115.214C252.638 117.258 250.981 118.915 248.938 118.915Z" fill="#EFEFF9"/>
<path d="M252.638 81.341H194.04V73.798C194.04 71.755 195.697 70.098 197.74 70.098H248.938C250.982 70.098 252.638 71.755 252.638 73.798V81.341Z" fill="#B2991F"/>
<path d="M214.936 110.261C213.348 110.261 211.933 109.988 210.69 109.443C209.455 108.897 208.472 108.139 207.742 107.169C207.021 106.191 206.628 105.056 206.563 103.765H209.595C209.659 104.559 209.932 105.244 210.413 105.822C210.894 106.391 211.524 106.832 212.302 107.145C213.08 107.458 213.942 107.614 214.888 107.614C215.947 107.614 216.885 107.43 217.703 107.061C218.521 106.692 219.163 106.179 219.628 105.521C220.093 104.863 220.325 104.101 220.325 103.235C220.325 102.329 220.101 101.531 219.652 100.841C219.203 100.144 218.545 99.5983 217.679 99.2054C216.813 98.8124 215.754 98.6159 214.503 98.6159H212.53V95.9694H214.503C215.481 95.9694 216.34 95.793 217.077 95.4401C217.823 95.0872 218.405 94.59 218.822 93.9484C219.247 93.3068 219.459 92.553 219.459 91.6868C219.459 90.8528 219.275 90.127 218.906 89.5095C218.537 88.892 218.016 88.4108 217.342 88.0659C216.676 87.7211 215.89 87.5486 214.984 87.5486C214.134 87.5486 213.332 87.705 212.578 88.0178C211.832 88.3226 211.223 88.7676 210.75 89.3531C210.277 89.9305 210.02 90.6282 209.98 91.4463H207.093C207.141 90.1551 207.53 89.0243 208.26 88.0539C208.989 87.0755 209.944 86.3136 211.123 85.7683C212.31 85.2229 213.613 84.9502 215.032 84.9502C216.556 84.9502 217.863 85.259 218.954 85.8765C220.045 86.486 220.883 87.292 221.468 88.2945C222.054 89.297 222.346 90.3796 222.346 91.5425C222.346 92.9299 221.981 94.1128 221.252 95.0912C220.53 96.0696 219.547 96.7473 218.304 97.1242V97.3167C219.86 97.5734 221.075 98.235 221.949 99.3016C222.824 100.36 223.261 101.671 223.261 103.235C223.261 104.575 222.896 105.778 222.166 106.844C221.444 107.903 220.458 108.737 219.207 109.346C217.956 109.956 216.532 110.261 214.936 110.261ZM236.217 110.261C234.404 110.261 232.86 109.767 231.585 108.781C230.31 107.787 229.336 106.347 228.662 104.462C227.988 102.57 227.651 100.284 227.651 97.6054C227.651 94.9429 227.988 92.6693 228.662 90.7846C229.344 88.892 230.322 87.4484 231.597 86.4539C232.88 85.4515 234.42 84.9502 236.217 84.9502C238.013 84.9502 239.549 85.4515 240.824 86.4539C242.107 87.4484 243.085 88.892 243.759 90.7846C244.441 92.6693 244.782 94.9429 244.782 97.6054C244.782 100.284 244.445 102.57 243.771 104.462C243.098 106.347 242.123 107.787 240.848 108.781C239.573 109.767 238.029 110.261 236.217 110.261ZM236.217 107.614C238.013 107.614 239.408 106.748 240.403 105.016C241.397 103.283 241.895 100.813 241.895 97.6054C241.895 95.4722 241.666 93.6557 241.209 92.156C240.76 90.6563 240.11 89.5135 239.26 88.7276C238.418 87.9416 237.403 87.5486 236.217 87.5486C234.436 87.5486 233.045 88.4268 232.042 90.1831C231.04 91.9314 230.539 94.4055 230.539 97.6054C230.539 99.7387 230.763 101.551 231.212 103.043C231.661 104.535 232.307 105.669 233.149 106.447C233.999 107.225 235.022 107.614 236.217 107.614Z" fill="#695CC6"/>
<path d="M333.405 159.526H253.719C250.293 159.526 247.515 162.304 247.515 165.73V213.906C247.515 217.332 250.292 220.11 253.719 220.11H254.108V230.029L268.326 220.266L267.514 220.109H333.405C336.831 220.109 339.609 217.332 339.609 213.905V165.73C339.608 162.303 336.831 159.526 333.405 159.526Z" fill="#492645"/>
<path d="M321.993 174.862H265.13C264.383 174.862 263.776 174.255 263.776 173.508C263.776 172.761 264.383 172.154 265.13 172.154H321.993C322.74 172.154 323.347 172.76 323.347 173.508C323.347 174.255 322.741 174.862 321.993 174.862Z" fill="#FEFEFE"/>
<path d="M321.993 183.093H265.13C264.383 183.093 263.776 182.486 263.776 181.739C263.776 180.992 264.383 180.385 265.13 180.385H321.993C322.74 180.385 323.347 180.991 323.347 181.739C323.347 182.486 322.741 183.093 321.993 183.093Z" fill="#FEFEFE"/>
<path d="M321.993 191.325H265.13C264.383 191.325 263.776 190.718 263.776 189.971C263.776 189.224 264.383 188.617 265.13 188.617H321.993C322.74 188.617 323.347 189.224 323.347 189.971C323.347 190.718 322.741 191.325 321.993 191.325Z" fill="#FEFEFE"/>
<path d="M321.993 199.556H265.13C264.383 199.556 263.776 198.95 263.776 198.202C263.776 197.455 264.383 196.848 265.13 196.848H321.993C322.74 196.848 323.347 197.455 323.347 198.202C323.347 198.949 322.741 199.556 321.993 199.556Z" fill="#FEFEFE"/>
<path d="M298.526 207.787H265.13C264.383 207.787 263.776 207.181 263.776 206.433C263.776 205.686 264.383 205.079 265.13 205.079H298.526C299.273 205.079 299.88 205.686 299.88 206.433C299.88 207.18 299.273 207.787 298.526 207.787Z" fill="#FEFEFE"/>
<path d="M346.303 219.836C346.303 225.403 341.79 229.915 336.224 229.915C330.657 229.915 326.145 225.402 326.145 219.836C326.145 214.269 330.658 209.757 336.224 209.757C341.79 209.757 346.303 214.269 346.303 219.836Z" fill="#B2991F"/>
<path d="M334.017 223.508C333.856 223.508 333.724 223.459 333.621 223.362C333.517 223.258 333.466 223.132 333.466 222.982V218.637L333.586 218.827L332.957 219.293C332.876 219.356 332.776 219.387 332.655 219.387C332.517 219.387 332.397 219.336 332.293 219.232C332.19 219.129 332.138 219.005 332.138 218.862C332.138 218.678 332.227 218.528 332.405 218.413L333.647 217.586C333.704 217.545 333.767 217.517 333.836 217.499C333.911 217.482 333.98 217.474 334.043 217.474C334.21 217.474 334.342 217.525 334.44 217.629C334.537 217.726 334.586 217.85 334.586 217.999V222.982C334.586 223.132 334.532 223.258 334.422 223.362C334.319 223.459 334.184 223.508 334.017 223.508ZM337.394 223.594C337.181 223.594 336.954 223.563 336.713 223.499C336.471 223.431 336.273 223.333 336.118 223.206C336.043 223.143 335.983 223.063 335.937 222.965C335.897 222.862 335.877 222.764 335.877 222.672C335.877 222.574 335.917 222.482 335.997 222.396C336.083 222.31 336.204 222.267 336.359 222.267C336.463 222.267 336.592 222.321 336.747 222.431C336.839 222.488 336.94 222.54 337.049 222.586C337.158 222.632 337.27 222.655 337.385 222.655C337.661 222.655 337.9 222.606 338.101 222.508C338.302 222.405 338.457 222.264 338.566 222.086C338.675 221.908 338.73 221.698 338.73 221.456C338.73 221.238 338.678 221.051 338.575 220.896C338.477 220.741 338.345 220.62 338.178 220.534C338.017 220.448 337.842 220.405 337.652 220.405C337.474 220.405 337.319 220.433 337.187 220.491C337.055 220.548 336.934 220.609 336.825 220.672C336.716 220.729 336.606 220.758 336.497 220.758C336.308 220.758 336.167 220.718 336.075 220.637C335.983 220.551 335.925 220.451 335.902 220.336C335.879 220.221 335.874 220.117 335.885 220.025L336.152 217.93C336.175 217.81 336.233 217.712 336.325 217.637C336.423 217.557 336.537 217.517 336.67 217.517H339.161C339.299 217.517 339.414 217.563 339.506 217.655C339.598 217.747 339.644 217.861 339.644 217.999C339.644 218.132 339.598 218.244 339.506 218.336C339.414 218.422 339.299 218.465 339.161 218.465H336.937L337.032 218.387L336.799 220.137L336.687 219.81C336.721 219.752 336.796 219.698 336.911 219.646C337.026 219.594 337.158 219.551 337.308 219.517C337.457 219.476 337.604 219.456 337.747 219.456C338.132 219.456 338.477 219.545 338.782 219.724C339.086 219.896 339.325 220.135 339.497 220.439C339.675 220.738 339.765 221.077 339.765 221.456C339.765 221.887 339.667 222.264 339.471 222.586C339.276 222.908 339 223.158 338.644 223.336C338.293 223.508 337.877 223.594 337.394 223.594Z" fill="white"/>
<path d="M232.123 168.56C231.456 168.56 230.874 168.065 230.783 167.385C230.684 166.644 231.205 165.963 231.946 165.864L239.562 164.848C240.312 164.75 240.984 165.271 241.083 166.011C241.182 166.752 240.661 167.433 239.92 167.532L232.304 168.548C232.243 168.556 232.183 168.56 232.123 168.56Z" fill="#FFE86F"/>
<path d="M241.263 159.928C240.987 159.928 240.711 159.844 240.47 159.67L234.202 155.134C233.596 154.696 233.461 153.85 233.899 153.244C234.337 152.637 235.183 152.501 235.789 152.941L242.057 157.477C242.663 157.915 242.798 158.761 242.36 159.367C242.096 159.733 241.682 159.928 241.263 159.928Z" fill="#FFE86F"/>
<path d="M247.696 156.544C246.948 156.544 246.342 155.938 246.342 155.19V146.728C246.342 145.98 246.948 145.374 247.696 145.374C248.444 145.374 249.05 145.98 249.05 146.728V155.19C249.05 155.938 248.444 156.544 247.696 156.544Z" fill="#FFE86F"/>
<path d="M256.327 157.39C255.996 157.39 255.665 157.27 255.403 157.025C254.857 156.515 254.826 155.658 255.337 155.112L260.075 150.035C260.585 149.488 261.439 149.457 261.988 149.969C262.534 150.479 262.565 151.336 262.054 151.882L257.316 156.959C257.049 157.245 256.688 157.39 256.327 157.39Z" fill="#FFE86F"/>
<path d="M426.655 159.608H363.509C360.338 159.608 357.768 162.178 357.768 165.349V199.829C357.768 203 360.338 205.57 363.509 205.57H363.868V214.749L377.025 205.715L376.274 205.57H426.655C429.826 205.57 432.396 203 432.396 199.829V165.349C432.396 162.178 429.826 159.608 426.655 159.608Z" fill="#FCE885"/>
<path d="M381.158 186.72C383.44 186.72 385.29 184.87 385.29 182.588C385.29 180.306 383.44 178.456 381.158 178.456C378.876 178.456 377.026 180.306 377.026 182.588C377.026 184.87 378.876 186.72 381.158 186.72Z" fill="#8B77E8"/>
<path d="M399.414 182.588C399.414 184.87 397.564 186.72 395.282 186.72C393 186.72 391.15 184.87 391.15 182.588C391.15 180.306 393 178.456 395.282 178.456C397.564 178.456 399.414 180.307 399.414 182.588Z" fill="#8B77E8"/>
<path d="M413.537 182.588C413.537 184.87 411.687 186.72 409.405 186.72C407.123 186.72 405.273 184.87 405.273 182.588C405.273 180.306 407.123 178.456 409.405 178.456C411.688 178.456 413.537 180.307 413.537 182.588Z" fill="#8B77E8"/>
<path d="M140.926 91.8H58.159C54.003 91.8 50.634 95.169 50.634 99.325V144.518C50.634 148.674 54.003 152.043 58.159 152.043H120.14C121.824 152.043 123.47 152.549 124.864 153.494L140.456 164.074V152.042H140.927C145.083 152.042 148.452 148.673 148.452 144.517V99.325C148.451 95.169 145.082 91.8 140.926 91.8Z" fill="#A3719F"/>
<path d="M112.377 121.921C112.377 124.912 114.802 127.337 117.793 127.337C120.784 127.337 123.209 124.912 123.209 121.921C123.209 118.93 120.784 116.505 117.793 116.505C114.802 116.505 112.377 118.93 112.377 121.921Z" fill="#F4D760"/>
<path d="M93.865 121.921C93.865 124.912 96.29 127.337 99.281 127.337C102.272 127.337 104.697 124.912 104.697 121.921C104.697 118.93 102.272 116.505 99.281 116.505C96.29 116.505 93.865 118.93 93.865 121.921Z" fill="#F4D760"/>
<path d="M75.353 121.921C75.353 124.912 77.778 127.337 80.769 127.337C83.76 127.337 86.185 124.912 86.185 121.921C86.185 118.93 83.76 116.505 80.769 116.505C77.777 116.505 75.353 118.93 75.353 121.921Z" fill="#F4D760"/>
<path d="M87.057 181.801C87.029 181.937 87.013 182.078 87.013 182.222V225.888C87.013 226.128 87.062 226.354 87.138 226.569L115.33 206.613L87.057 181.801Z" fill="#695CC6"/>
<path d="M124.261 208.186C123.195 208.852 121.983 209.196 120.766 209.196C119.549 209.196 118.338 208.852 117.271 208.186L89.355 227.947H152.459C152.577 227.947 152.692 227.931 152.805 227.912L152.108 227.898L124.261 208.186Z" fill="#695CC6"/>
<path d="M123.535 205.754L152.67 180.184C152.6 180.177 152.531 180.163 152.459 180.163H89.072C89 180.163 88.931 180.177 88.861 180.184L117.997 205.754C119.575 207.138 121.956 207.14 123.535 205.754Z" fill="#695CC6"/>
<path d="M154.393 226.569C154.468 226.355 154.517 226.128 154.517 225.888V182.222C154.517 182.078 154.502 181.937 154.473 181.801L126.201 206.613L154.393 226.569Z" fill="#695CC6"/>
<path d="M154.474 181.801C154.294 180.934 153.566 180.277 152.67 180.184L123.535 205.754C121.957 207.14 119.575 207.139 117.997 205.754L88.861 180.184C87.965 180.277 87.238 180.934 87.057 181.801L115.329 206.613L87.137 226.569C87.419 227.37 88.174 227.947 89.072 227.947H89.354L117.27 208.186C118.336 208.852 119.548 209.196 120.765 209.196C121.982 209.196 123.194 208.852 124.26 208.186L152.107 227.898L152.804 227.912C153.547 227.786 154.148 227.264 154.392 226.569L126.201 206.613L154.474 181.801Z" fill="#FEFEFE"/>
<path d="M159.621 227.2C159.621 231.386 156.228 234.779 152.042 234.779C147.856 234.779 144.463 231.386 144.463 227.2C144.463 223.014 147.856 219.621 152.042 219.621C156.228 219.621 159.621 223.014 159.621 227.2Z" fill="#B2991F"/>
<path d="M151.172 228.483C151.276 228.483 151.362 228.518 151.432 228.587C151.501 228.656 151.535 228.742 151.535 228.846C151.535 228.945 151.501 229.03 151.432 229.099C151.362 229.164 151.276 229.196 151.172 229.196H148.968C148.856 229.196 148.767 229.161 148.703 229.092C148.638 229.023 148.605 228.935 148.605 228.826C148.605 228.718 148.644 228.623 148.722 228.541L150.135 227.031C150.295 226.858 150.42 226.681 150.511 226.499C150.606 226.318 150.654 226.16 150.654 226.026C150.654 225.81 150.591 225.637 150.466 225.508C150.34 225.374 150.174 225.307 149.967 225.307C149.884 225.307 149.8 225.326 149.714 225.365C149.627 225.404 149.543 225.458 149.461 225.527C149.383 225.596 149.31 225.676 149.241 225.767C149.189 225.836 149.137 225.879 149.085 225.897C149.033 225.914 148.986 225.922 148.942 225.922C148.847 225.922 148.759 225.888 148.677 225.819C148.599 225.745 148.56 225.661 148.56 225.566C148.56 225.492 148.584 225.421 148.631 225.352C148.683 225.283 148.746 225.212 148.819 225.138C148.927 225.03 149.048 224.935 149.182 224.853C149.316 224.771 149.454 224.708 149.597 224.665C149.74 224.617 149.878 224.594 150.012 224.594C150.302 224.594 150.552 224.652 150.764 224.769C150.98 224.881 151.146 225.043 151.263 225.255C151.38 225.462 151.438 225.709 151.438 225.994C151.438 226.231 151.367 226.497 151.224 226.791C151.086 227.081 150.898 227.353 150.66 227.608L149.785 228.541L149.714 228.483H151.172ZM152.62 228.282C152.659 228.282 152.7 228.288 152.743 228.301C152.791 228.314 152.843 228.34 152.899 228.379C152.972 228.435 153.059 228.485 153.158 228.528C153.262 228.572 153.381 228.593 153.515 228.593C153.648 228.593 153.774 228.561 153.89 228.496C154.011 228.427 154.111 228.332 154.189 228.211C154.266 228.085 154.305 227.936 154.305 227.763C154.305 227.599 154.271 227.463 154.202 227.355C154.137 227.247 154.048 227.165 153.936 227.109C153.828 227.053 153.711 227.024 153.586 227.024C153.491 227.024 153.411 227.033 153.346 227.05C153.285 227.068 153.225 227.087 153.164 227.109C153.108 227.126 153.041 227.135 152.964 227.135C152.864 227.135 152.786 227.1 152.73 227.031C152.678 226.962 152.652 226.88 152.652 226.785C152.652 226.724 152.663 226.67 152.685 226.623C152.711 226.575 152.747 226.523 152.795 226.467L153.936 225.255L154.111 225.404H152.516C152.413 225.404 152.326 225.369 152.257 225.3C152.188 225.231 152.153 225.145 152.153 225.041C152.153 224.941 152.188 224.859 152.257 224.795C152.326 224.725 152.413 224.691 152.516 224.691H154.5C154.634 224.691 154.733 224.728 154.798 224.801C154.867 224.875 154.902 224.967 154.902 225.08C154.902 225.136 154.887 225.192 154.856 225.248C154.826 225.3 154.789 225.348 154.746 225.391L153.599 226.623L153.424 226.402C153.471 226.381 153.536 226.361 153.618 226.344C153.705 226.327 153.776 226.318 153.832 226.318C154.087 226.318 154.308 226.385 154.493 226.519C154.683 226.648 154.828 226.819 154.928 227.031C155.031 227.238 155.083 227.463 155.083 227.705C155.083 228.025 155.012 228.301 154.869 228.535C154.727 228.768 154.526 228.947 154.266 229.073C154.007 229.198 153.705 229.261 153.359 229.261C153.199 229.261 153.041 229.241 152.886 229.202C152.73 229.164 152.596 229.112 152.484 229.047C152.389 228.995 152.324 228.939 152.289 228.878C152.259 228.814 152.244 228.753 152.244 228.697C152.244 228.597 152.279 228.505 152.348 228.418C152.421 228.327 152.512 228.282 152.62 228.282Z" fill="white"/>
<path d="M311.959 73.854C295.58 73.854 282.301 87.134 282.301 103.513C282.301 119.892 295.581 133.172 311.959 133.172C328.338 133.172 341.617 119.892 341.617 103.513C341.618 87.134 328.338 73.854 311.959 73.854Z" fill="#695CC6"/>
<path d="M327.621 117.129L325.246 119.504C324.822 119.927 323.581 120.192 323.541 120.192C316.028 120.258 308.795 117.307 303.48 111.991C298.151 106.659 295.196 99.4 295.276 91.862C295.276 91.859 295.548 90.653 295.971 90.233L298.346 87.858C299.215 86.985 300.884 86.591 302.053 86.982L302.553 87.149C303.719 87.54 304.943 88.829 305.265 90.017L306.459 94.401C306.781 95.592 306.347 97.286 305.478 98.156L303.892 99.742C305.449 105.505 309.971 110.028 315.735 111.588L317.32 110.002C318.193 109.129 319.887 108.695 321.075 109.017L325.458 110.216C326.646 110.542 327.935 111.759 328.325 112.924L328.492 113.431C328.881 114.595 328.49 116.264 327.621 117.129Z" fill="white"/>
<path d="M341.635 131.182C342.263 126.182 338.718 121.62 333.719 120.993C328.719 120.365 324.157 123.91 323.53 128.91C322.902 133.909 326.447 138.471 331.447 139.098C336.446 139.726 341.008 136.181 341.635 131.182Z" fill="#B2991F"/>
<path d="M331.903 133.251C331.773 133.251 331.659 133.209 331.56 133.126C331.466 133.038 331.419 132.928 331.419 132.798C331.419 132.725 331.435 132.655 331.466 132.588L333.378 128.444L333.464 128.655H331.209C331.084 128.655 330.98 128.613 330.897 128.53C330.813 128.446 330.772 128.342 330.772 128.218C330.772 128.098 330.813 127.999 330.897 127.921C330.98 127.838 331.084 127.796 331.209 127.796H333.924C334.06 127.796 334.177 127.84 334.276 127.929C334.38 128.012 334.432 128.121 334.432 128.257C334.432 128.324 334.416 128.394 334.385 128.467L332.332 132.954C332.296 133.048 332.236 133.121 332.153 133.173C332.075 133.225 331.992 133.251 331.903 133.251Z" fill="white"/>
</svg>
