<svg width="295" height="295" viewBox="0 0 295 295" fill="none" xmlns="http://www.w3.org/2000/svg">
<rect width="295" height="295" fill="#1E1E1E"/>
<g clip-path="url(#clip0_0_1)" filter="url(#filter0_f_0_1)">
<rect width="289" height="289" transform="translate(3 3)" fill="#16265A"/>
<path d="M292 3H3V292H292V3Z" fill="#0A1128"/>
<path d="M280.801 85.7262L377.616 97.2501M337.879 320.9L267.074 269.241L190.85 241.425L114.626 197.352L17.45 219.389M17.45 219.389L109.569 278.995L48.6981 320.719L17.45 219.389ZM17.45 219.389L-68.1663 181.096L39.8475 140.997L-8.19876 85.7262L48.6981 31.7194L-21.9263 -19.7588" stroke="#16265A" stroke-width="1.19213"/>
<path d="M-8.19873 85.7263L88.6163 97.2863L143.888 140.998L220.834 181.096L114.446 197.172L39.6669 140.817M136.663 329.931L109.569 278.995" stroke="#16265A" stroke-width="1.19213"/>
<path d="M190.85 241.425L211.802 307.173L267.074 269.241L306.45 219.389L220.834 181.096L190.85 241.425ZM190.85 241.425L109.569 278.995L114.626 197.353L143.887 140.998L197.714 100.176L280.801 85.7262L211.622 17.9919L136.662 40.9312L109.569 -10.005L48.6981 31.7194L88.6162 97.2862L39.8475 140.998L17.45 219.389L-21.9263 269.241L48.8787 320.9" stroke="#16265A" stroke-width="1.19213"/>
<path d="M190.85 -47.575L211.983 18.3531L267.074 -19.7588M220.834 181.096L197.714 100.176M197.714 100.176L88.6163 97.2862L136.663 40.9312M197.714 100.176L328.848 140.997M143.888 140.997H39.8475" stroke="#16265A" stroke-width="1.19213"/>
<path d="M-77.1975 18.1725L48.6981 31.7194L136.663 40.9312L197.714 100.176L211.622 17.9919M211.622 17.9919L337.879 31.9L280.801 85.7262L328.848 140.997L220.834 181.096L267.074 269.241M211.622 17.9919L109.569 -10.005M211.803 307.172L109.569 278.995M17.45 -69.6113L48.8788 31.9M39.8475 140.997L-91.2863 100.176" stroke="#16265A" stroke-width="1.19213"/>
<path d="M280.801 90.4225C283.395 90.4225 285.497 88.3199 285.497 85.7263C285.497 83.1326 283.395 81.03 280.801 81.03C278.208 81.03 276.105 83.1326 276.105 85.7263C276.105 88.3199 278.208 90.4225 280.801 90.4225Z" fill="#16265A"/>
<path d="M197.714 104.873C200.307 104.873 202.41 102.77 202.41 100.176C202.41 97.5826 200.307 95.48 197.714 95.48C195.12 95.48 193.017 97.5826 193.017 100.176C193.017 102.77 195.12 104.873 197.714 104.873Z" fill="#16265A"/>
<path d="M220.834 185.793C223.427 185.793 225.53 183.69 225.53 181.096C225.53 178.503 223.427 176.4 220.834 176.4C218.24 176.4 216.137 178.503 216.137 181.096C216.137 183.69 218.24 185.793 220.834 185.793Z" fill="#16265A"/>
<path d="M267.074 273.938C269.667 273.938 271.77 271.835 271.77 269.241C271.77 266.648 269.667 264.545 267.074 264.545C264.48 264.545 262.378 266.648 262.378 269.241C262.378 271.835 264.48 273.938 267.074 273.938Z" fill="#16265A"/>
<path d="M190.85 246.121C193.444 246.121 195.546 244.019 195.546 241.425C195.546 238.831 193.444 236.729 190.85 236.729C188.256 236.729 186.154 238.831 186.154 241.425C186.154 244.019 188.256 246.121 190.85 246.121Z" fill="#16265A"/>
<path d="M114.626 202.049C117.22 202.049 119.322 199.946 119.322 197.353C119.322 194.759 117.22 192.656 114.626 192.656C112.033 192.656 109.93 194.759 109.93 197.353C109.93 199.946 112.033 202.049 114.626 202.049Z" fill="#16265A"/>
<path d="M109.569 283.691C112.162 283.691 114.265 281.589 114.265 278.995C114.265 276.401 112.162 274.299 109.569 274.299C106.975 274.299 104.872 276.401 104.872 278.995C104.872 281.589 106.975 283.691 109.569 283.691Z" fill="#16265A"/>
<path d="M17.45 224.085C20.0436 224.085 22.1462 221.982 22.1462 219.389C22.1462 216.795 20.0436 214.693 17.45 214.693C14.8563 214.693 12.7537 216.795 12.7537 219.389C12.7537 221.982 14.8563 224.085 17.45 224.085Z" fill="#16265A"/>
<path d="M39.8475 145.694C42.4412 145.694 44.5437 143.591 44.5437 140.998C44.5437 138.404 42.4412 136.301 39.8475 136.301C37.2538 136.301 35.1512 138.404 35.1512 140.998C35.1512 143.591 37.2538 145.694 39.8475 145.694Z" fill="#16265A"/>
<path d="M48.8787 36.5963C51.4724 36.5963 53.575 34.4937 53.575 31.9C53.575 29.3063 51.4724 27.2038 48.8787 27.2038C46.2851 27.2038 44.1825 29.3063 44.1825 31.9C44.1825 34.4937 46.2851 36.5963 48.8787 36.5963Z" fill="#16265A"/>
<path d="M136.662 45.6275C139.256 45.6275 141.359 43.5249 141.359 40.9313C141.359 38.3376 139.256 36.235 136.662 36.235C134.069 36.235 131.966 38.3376 131.966 40.9313C131.966 43.5249 134.069 45.6275 136.662 45.6275Z" fill="#16265A"/>
<path d="M211.802 22.8688C214.396 22.8688 216.499 20.7662 216.499 18.1725C216.499 15.5788 214.396 13.4763 211.802 13.4763C209.209 13.4763 207.106 15.5788 207.106 18.1725C207.106 20.7662 209.209 22.8688 211.802 22.8688Z" fill="#16265A"/>
<path d="M88.6162 101.983C91.2099 101.983 93.3125 99.8799 93.3125 97.2863C93.3125 94.6926 91.2099 92.59 88.6162 92.59C86.0226 92.59 83.92 94.6926 83.92 97.2863C83.92 99.8799 86.0226 101.983 88.6162 101.983Z" fill="#16265A"/>
<path d="M143.887 145.694C146.481 145.694 148.584 143.591 148.584 140.998C148.584 138.404 146.481 136.301 143.887 136.301C141.294 136.301 139.191 138.404 139.191 140.998C139.191 143.591 141.294 145.694 143.887 145.694Z" fill="#16265A"/>
</g>
<defs>
<filter id="filter0_f_0_1" x="0" y="0" width="295" height="295" filterUnits="userSpaceOnUse" color-interpolation-filters="sRGB">
<feFlood flood-opacity="0" result="BackgroundImageFix"/>
<feBlend mode="normal" in="SourceGraphic" in2="BackgroundImageFix" result="shape"/>
<feGaussianBlur stdDeviation="1.5" result="effect1_foregroundBlur_0_1"/>
</filter>
<clipPath id="clip0_0_1">
<rect width="289" height="289" fill="white" transform="translate(3 3)"/>
</clipPath>
</defs>
</svg>
