<svg width="5274" height="5166" viewBox="0 0 5274 5166" fill="none" xmlns="http://www.w3.org/2000/svg">
<path opacity="0.3" d="M3088.64 1400.41L3015.01 1405.27C3006.56 1373.09 2995.46 1342 2981.68 1312.37L3042.77 1272.21C3059.43 1261.26 3063.71 1239.09 3052.34 1222.69L2981.09 1120.01C2969.68 1103.57 2946.89 1099.1 2930.17 1110.03L2868.27 1150.5C2844.76 1126.91 2819.22 1105.27 2791.9 1085.89L2824.54 1020.24C2833.35 1002.53 2825.64 981.035 2807.33 972.212L2692.63 916.925C2674.25 908.067 2652.18 915.254 2643.32 932.989L2610.46 998.85C2578.31 989.687 2545.04 983.267 2511 979.561L2505.28 905.703C2503.74 885.874 2485.92 870.758 2465.46 871.94L2337.25 879.347C2316.7 880.534 2301.29 897.618 2302.83 917.504L2308.57 991.581C2275.18 999.312 2242.92 1009.67 2212.15 1022.65L2168.91 960.889C2157.25 944.233 2133.91 939.661 2116.78 950.676L2009.48 1019.7C1992.29 1030.76 1987.84 1053.26 1999.56 1069.94L2042.94 1131.71C2018.3 1154.51 1995.79 1179.39 1975.61 1206.02L1906.19 1173.17C1887.39 1164.27 1864.79 1171.63 1855.72 1189.61L1798.92 1302.18C1789.82 1320.2 1797.73 1342 1816.58 1350.86L1885.5 1383.26C1876.1 1414.9 1869.65 1447.66 1866.09 1481.19L1789.79 1486.23C1768.9 1487.61 1753.21 1504.99 1754.77 1525.05L1764.48 1650.49C1766.04 1670.55 1784.24 1685.64 1805.12 1684.2L1880.8 1678.98C1889.34 1711.88 1900.68 1743.61 1914.77 1773.85L1852.51 1814.55C1835.22 1825.86 1830.75 1848.49 1842.53 1865.1L1916.09 1968.87C1927.84 1985.45 1951.34 1989.69 1968.57 1978.36L2030.34 1937.76C2054.58 1961.8 2080.98 1983.71 2109.16 2003.29L2076.88 2067.98C2067.85 2086.06 2075.72 2107.73 2094.43 2116.36L2211.26 2170.25C2229.91 2178.86 2252.3 2171.19 2261.27 2153.15L2293.13 2089.06C2326.1 2098 2360.18 2104.04 2395 2107.25L2400.48 2178.09C2402.03 2197.98 2419.91 2212.82 2440.43 2211.23L2568.45 2201.34C2588.88 2199.76 2604.18 2182.41 2602.65 2162.58L2597.17 2091.95C2630.85 2083.57 2663.32 2072.54 2694.18 2058.85L2735.05 2117.03C2746.54 2133.39 2769.5 2137.54 2786.32 2126.31L2891.31 2056.19C2908.07 2044.99 2912.37 2022.68 2900.94 2006.35L2859.95 1947.82C2884.22 1924.62 2906.38 1899.43 2926.11 1872.5L2991.62 1903.3C3009.85 1911.87 3031.72 1904.38 3040.48 1886.59L3095.15 1775.41C3103.89 1757.65 3096.23 1736.29 3078.05 1727.68L3012.41 1696.62C3021.35 1665.27 3027.44 1632.85 3030.66 1599.7L3103.68 1594.66C3123.78 1593.27 3138.83 1576.21 3137.3 1556.55L3127.78 1433.6C3126.26 1413.94 3108.74 1399.08 3088.64 1400.41ZM2424.95 1179.48C2631.3 1166.64 2810.19 1317.97 2825.65 1517.41C2841.1 1716.86 2687.39 1890.65 2481.21 1905.67C2273.79 1920.79 2092.05 1769.65 2076.43 1568.01C2060.81 1366.38 2217.36 1192.39 2424.95 1179.48Z" fill="black"/>
<path d="M2796.02 3832.41C2573.89 3539.49 2671.92 3086.47 2847.81 3009.29C2939.29 2969.15 3013.98 3047.3 3102.9 2992.9C3201.41 2932.63 3158.42 2806.91 3241 2583.96C3283.66 2468.76 3361.03 2259.87 3510.86 2222.68C3659.45 2185.79 3731.16 2354.53 3893.27 2323.5C4046.55 2294.16 4040.69 2132.13 4244.04 2044.8C4262.96 2036.67 4476.92 1947.79 4595.54 2044.31C4716.06 2142.37 4695.6 2397.16 4577.2 2526.16C4469.63 2643.36 4312.82 2622.28 4296.56 2705.16C4278.63 2796.49 4463.18 2852 4453.97 2947.55C4440.65 3085.67 4045.34 3070.44 3973.11 3273.47C3930.64 3392.86 4048.29 3451.64 4028.56 3612.49C4003.09 3820.11 3775.85 3977.09 3601.84 4037.48C3349.66 4125.01 2988.56 4086.29 2796.02 3832.41Z" fill="url(#paint0_linear_7_4)"/>
<mask id="mask0_7_4" style="mask-type:luminance" maskUnits="userSpaceOnUse" x="2667" y="1999" width="2010" height="2081">
<path d="M2796.02 3832.41C2573.89 3539.49 2671.92 3086.47 2847.81 3009.29C2939.29 2969.15 3013.98 3047.3 3102.9 2992.9C3201.41 2932.63 3158.42 2806.91 3241 2583.96C3283.66 2468.76 3361.03 2259.87 3510.86 2222.68C3659.45 2185.79 3731.16 2354.53 3893.27 2323.5C4046.55 2294.16 4040.69 2132.13 4244.04 2044.8C4262.96 2036.67 4476.92 1947.79 4595.54 2044.31C4716.06 2142.37 4695.6 2397.16 4577.2 2526.16C4469.63 2643.36 4312.82 2622.28 4296.56 2705.16C4278.63 2796.49 4463.18 2852 4453.97 2947.55C4440.65 3085.67 4045.34 3070.44 3973.11 3273.47C3930.64 3392.86 4048.29 3451.64 4028.56 3612.49C4003.09 3820.11 3775.85 3977.09 3601.84 4037.48C3349.66 4125.01 2988.56 4086.29 2796.02 3832.41Z" fill="white"/>
</mask>
<g mask="url(#mask0_7_4)">
<path d="M2883.07 4068.21L2873.02 4062.13C3112.98 3680.95 3360.99 3334.87 3610.17 3033.51C3809.55 2792.36 4010.12 2579.14 4206.32 2399.76C4540.66 2094.08 4749.37 1991.31 4751.44 1990.31L4756.68 2000.68C4754.62 2001.68 4547 2104 4213.75 2408.79C3906.16 2690.12 3425.61 3206.38 2883.07 4068.21Z" fill="white"/>
<path d="M4175.32 2430.18C4220.05 2074.4 4419.89 1834.09 4421.91 1831.7L4431.01 1839.07C4429.02 1841.43 4231.33 2079.3 4187.04 2431.59L4175.32 2430.18Z" fill="white"/>
<path d="M3573.56 3076C3496.76 2692.82 3517.86 2444.11 3549.09 2302.94C3583.1 2149.18 3634.87 2087.23 3637.06 2084.67L3646.13 2092.08C3645.6 2092.7 3593.66 2155.15 3560.35 2306.65C3529.58 2446.64 3508.9 2693.36 3585.15 3073.77L3573.56 3076Z" fill="white"/>
<path d="M3084.38 3743.35C2799.84 3120.15 2905.69 2731.2 2906.79 2727.35L2918.16 2730.46C2917.88 2731.43 2890.75 2832.34 2901.01 3011.31C2910.04 3168.91 2951.06 3423.02 3095.15 3738.63L3084.38 3743.35Z" fill="white"/>
<path d="M3774.1 3019.84C3733.58 3014.52 3692.69 3006.95 3651.66 2996.74L3654.56 2985.53C3922.66 3052.26 4186.48 3005.18 4360.57 2953.92C4549.29 2898.35 4676 2826.15 4677.25 2825.43L4683.23 2835.4C4681.96 2836.13 4554.03 2909.04 4363.97 2965C4215.05 3008.84 4000.93 3049.65 3774.1 3019.84Z" fill="white"/>
<path d="M3241.73 3633.03C3219.85 3630.15 3197.79 3626.49 3175.52 3621.95L3177.92 3610.63C3460.29 3668.1 3713.16 3584.95 3875.59 3505.08C4051.72 3418.47 4162.25 3317.08 4163.34 3316.07L4171.45 3324.48C4170.34 3325.5 4058.55 3428.05 3880.89 3515.41C3729.57 3589.82 3500.47 3667.02 3241.73 3633.03Z" fill="white"/>
</g>
<path d="M1847.26 3381.69C1478.88 3435.89 1116.89 3138.02 1130.11 2949.68C1136.99 2851.72 1242.53 2823.93 1235.36 2721.48C1227.41 2607.98 1093.93 2585.99 931.93 2409.72C848.228 2318.65 696.445 2153.49 733.427 2006.49C770.103 1860.7 955.855 1878.11 1004.17 1723.39C1049.85 1577.1 901.13 1505.93 918.121 1289.08C919.702 1268.91 940.289 1042.16 1083.05 985.037C1228.09 927.003 1448 1064.55 1508.5 1227.59C1563.48 1375.7 1470.72 1501.32 1537.72 1554.37C1611.57 1612.83 1748.4 1479.43 1830.14 1532.35C1948.3 1608.85 1748.61 1943.36 1897.52 2101.31C1985.09 2194.19 2093.4 2120.15 2229.02 2212.89C2404.07 2332.58 2438.58 2602.85 2411.12 2781.67C2371.33 3040.81 2166.56 3334.72 1847.26 3381.69Z" fill="url(#paint1_linear_7_4)"/>
<mask id="mask1_7_4" style="mask-type:luminance" maskUnits="userSpaceOnUse" x="727" y="971" width="1693" height="2418">
<path d="M1847.26 3381.69C1478.88 3435.89 1116.89 3138.02 1130.11 2949.68C1136.99 2851.72 1242.53 2823.93 1235.36 2721.48C1227.41 2607.98 1093.93 2585.99 931.93 2409.72C848.228 2318.65 696.445 2153.49 733.427 2006.49C770.103 1860.7 955.855 1878.11 1004.17 1723.39C1049.85 1577.1 901.13 1505.93 918.121 1289.08C919.702 1268.91 940.289 1042.16 1083.05 985.037C1228.09 927.003 1448 1064.55 1508.5 1227.59C1563.48 1375.7 1470.72 1501.32 1537.72 1554.37C1611.57 1612.83 1748.4 1479.43 1830.14 1532.35C1948.3 1608.85 1748.61 1943.36 1897.52 2101.31C1985.09 2194.19 2093.4 2120.15 2229.02 2212.89C2404.07 2332.58 2438.58 2602.85 2411.12 2781.67C2371.33 3040.81 2166.56 3334.72 1847.26 3381.69Z" fill="white"/>
</mask>
<g mask="url(#mask1_7_4)">
<path d="M2100.64 3417.39L2090.44 3423.22C1859.94 3036.47 1664.85 2659.28 1510.59 2302.13C1387.16 2016.34 1289.44 1742.66 1220.15 1488.69C1102.07 1055.89 1107.68 827.138 1107.75 824.878L1119.56 825.23C1119.49 827.478 1113.99 1055.07 1231.78 1486.51C1340.5 1884.74 1579.5 2542.98 2100.64 3417.39Z" fill="white"/>
<path d="M1232.96 1529.79C933.501 1323.75 811.037 1037.95 809.835 1035.09L820.754 1030.69C821.942 1033.52 943.223 1316.3 1239.75 1520.32L1232.96 1529.79Z" fill="white"/>
<path d="M1531.65 2353.76C1150.33 2239.86 936.199 2104.62 823.719 2011.21C701.203 1909.47 669.753 1835.58 668.473 1832.48L679.416 1828.14C679.723 1828.88 711.548 1903.16 832.361 2003.22C943.993 2095.68 1156.53 2229.63 1535.1 2342.7L1531.65 2353.76Z" fill="white"/>
<path d="M1902.7 3090.55C1207.41 3043.29 906.821 2768.81 903.867 2766.05L912.027 2757.69C912.769 2758.38 990.905 2829.3 1156.96 2904.64C1303.19 2970.98 1551.4 3055.08 1903.52 3079.01L1902.7 3090.55Z" fill="white"/>
<path d="M1575.41 2154C1551.55 2186.52 1525.49 2218.3 1496.99 2248.96L1488.26 2241.18C1674.51 2040.84 1756.21 1790.67 1791.94 1616.08C1830.67 1426.81 1825.24 1283.32 1825.18 1281.9L1836.98 1281.42C1837.03 1282.86 1842.53 1427.74 1803.52 1618.35C1772.95 1767.7 1708.98 1971.97 1575.41 2154Z" fill="white"/>
<path d="M1877.34 2902.64C1864.46 2920.2 1850.77 2937.54 1836.21 2954.66L1827.15 2947.25C2011.76 2730.23 2055.82 2472.54 2060.29 2294.57C2065.13 2101.59 2025.8 1958.35 2025.4 1956.93L2036.79 1953.88C2037.19 1955.32 2076.98 2100.19 2072.09 2294.85C2067.93 2460.65 2029.7 2695 1877.34 2902.64Z" fill="white"/>
</g>
<path d="M4582.1 4217L851.269 4185.41V4278.87C851.269 4304.24 867.542 4325.81 889.58 4329.66L1944.55 4513.71C1957.07 4515.89 1969.76 4516.47 1982.4 4515.43L4541.55 4305.59C4564.4 4303.72 4582.1 4282.08 4582.1 4256.01V4217Z" fill="#BFC8D6"/>
<path d="M3209.15 4067.22L837.905 4238.2C795.474 4241.26 760.973 4208.75 760.973 4165.58V2435.94C760.973 2392.77 795.473 2357.77 837.905 2357.77L921.793 2405.13L3209.15 2357.77C3244.1 2357.77 3272.37 2389.41 3272.37 2428.43V3991.99C3272.37 4031.02 3244.1 4064.7 3209.15 4067.22Z" fill="#BFC8D6"/>
<path d="M3246.96 4067.22L875.716 4238.2C833.283 4241.26 798.784 4208.75 798.784 4165.58V2435.94C798.784 2392.77 833.283 2357.77 875.716 2357.77H3246.96C3281.92 2357.77 3310.18 2389.41 3310.18 2428.43V3991.99C3310.18 4031.02 3281.91 4064.7 3246.96 4067.22Z" fill="white"/>
<path d="M3173.09 3956.98L964.522 4105.5C929.992 4107.82 901.931 4081.14 901.931 4045.9V2531.6C901.931 2496.35 929.991 2467.66 964.522 2467.52L3173.09 2458.19C3201.92 2458.07 3225.25 2483.99 3225.25 2516.1V3895.35C3225.25 3927.45 3201.92 3955.05 3173.09 3956.98Z" fill="#D8DEE8"/>
<path d="M1747.82 2609.63L1151.78 2611.16L1151.7 2555.49L1747.74 2555.68L1747.82 2609.63Z" fill="white"/>
<path d="M2028.49 2593.52L1890.8 2593.76L1890.74 2555.73L2028.43 2555.77L2028.49 2593.52Z" fill="white"/>
<path d="M2028.58 2645.97L1890.89 2646.6L1890.83 2608.57L2028.52 2608.22L2028.58 2645.97Z" fill="white"/>
<path d="M2714.74 2642.84L2180.57 2645.28L2180.51 2607.84L2714.69 2606.49L2714.74 2642.84Z" fill="white"/>
<path d="M2802.42 2692.7L2273.55 2696.61L2273.5 2659.36L2802.36 2656.53L2802.42 2692.7Z" fill="white"/>
<path d="M2802.5 2742.96L2273.64 2748.37L2273.58 2711.12L2802.44 2706.79L2802.5 2742.96Z" fill="white"/>
<path d="M2802.58 2793.22L2273.72 2800.12L2273.66 2762.87L2802.52 2757.05L2802.58 2793.22Z" fill="white"/>
<path d="M2028.66 2698.42L1890.97 2699.44L1890.91 2661.4L2028.6 2660.67L2028.66 2698.42Z" fill="white"/>
<path d="M2028.74 2750.87L1891.05 2752.28L1890.99 2714.24L2028.68 2713.12L2028.74 2750.87Z" fill="white"/>
<path d="M2028.83 2803.32L1891.14 2805.11L1891.08 2767.08L2028.77 2765.57L2028.83 2803.32Z" fill="white"/>
<path d="M2028.91 2855.77L1891.22 2857.95L1891.16 2819.92L2028.85 2818.02L2028.91 2855.77Z" fill="white"/>
<path d="M2397.86 2849.91L2058.95 2855.29L2058.89 2817.6L2397.81 2812.91L2397.86 2849.91Z" fill="white"/>
<path d="M2028.99 2908.22L1891.3 2910.79L1891.24 2872.76L2028.93 2870.47L2028.99 2908.22Z" fill="white"/>
<path d="M2029.07 2960.67L1891.39 2963.63L1891.33 2925.6L2029.01 2922.92L2029.07 2960.67Z" fill="white"/>
<path d="M2029.16 3013.12L1891.47 3016.47L1891.41 2978.44L2029.1 2975.37L2029.16 3013.12Z" fill="white"/>
<path d="M2556.73 2898.34L2180.98 2905.37L2180.92 2867.93L2556.67 2861.67L2556.73 2898.34Z" fill="white"/>
<path d="M2752.02 2945.09L2273.96 2955.39L2273.9 2918.14L2751.96 2908.81L2752.02 2945.09Z" fill="white"/>
<path d="M2752.1 2995.49L2274.04 3007.15L2273.99 2969.9L2752.04 2959.22L2752.1 2995.49Z" fill="white"/>
<path d="M2029.24 3065.57L1891.55 3069.31L1891.49 3031.28L2029.18 3027.82L2029.24 3065.57Z" fill="white"/>
<path d="M2029.32 3118.02L1891.64 3122.15L1891.58 3084.12L2029.26 3080.27L2029.32 3118.02Z" fill="white"/>
<path d="M2029.4 3170.46L1891.72 3174.99L1891.66 3136.96L2029.34 3132.72L2029.4 3170.46Z" fill="white"/>
<path d="M2029.49 3222.91L1891.8 3227.83L1891.74 3189.8L2029.43 3185.16L2029.49 3222.91Z" fill="white"/>
<path d="M2029.57 3275.36L1891.89 3280.67L1891.83 3242.64L2029.51 3237.61L2029.57 3275.36Z" fill="white"/>
<path d="M2029.65 3327.81L1891.97 3333.51L1891.91 3295.48L2029.59 3290.06L2029.65 3327.81Z" fill="white"/>
<path d="M2029.74 3380.26L1892.05 3386.35L1891.99 3348.32L2029.68 3342.51L2029.74 3380.26Z" fill="white"/>
<path d="M2029.82 3432.71L1892.14 3439.19L1892.08 3401.16L2029.76 3394.96L2029.82 3432.71Z" fill="white"/>
<path d="M2029.9 3485.16L1892.22 3492.03L1892.16 3454L2029.84 3447.41L2029.9 3485.16Z" fill="white"/>
<path d="M2029.98 3537.61L1892.3 3544.87L1892.24 3506.84L2029.92 3499.86L2029.98 3537.61Z" fill="white"/>
<path d="M2030.07 3590.06L1892.39 3597.71L1892.33 3559.68L2030.01 3552.31L2030.07 3590.06Z" fill="white"/>
<path d="M2030.15 3642.51L1892.47 3650.55L1892.41 3612.52L2030.09 3604.76L2030.15 3642.51Z" fill="white"/>
<path d="M2030.23 3694.96L1892.55 3703.39L1892.49 3665.36L2030.17 3657.21L2030.23 3694.96Z" fill="white"/>
<path d="M2030.31 3747.41L1892.64 3756.23L1892.58 3718.2L2030.26 3709.66L2030.31 3747.41Z" fill="white"/>
<path d="M2030.4 3799.86L1892.72 3809.07L1892.66 3771.04L2030.34 3762.11L2030.4 3799.86Z" fill="white"/>
<path d="M2030.48 3852.31L1892.8 3861.91L1892.74 3823.87L2030.42 3814.56L2030.48 3852.31Z" fill="white"/>
<path d="M2030.56 3904.76L1892.89 3914.74L1892.83 3876.71L2030.5 3867.01L2030.56 3904.76Z" fill="white"/>
<path d="M2030.64 3957.21L1892.97 3967.58L1892.91 3929.55L2030.59 3919.46L2030.64 3957.21Z" fill="white"/>
<path d="M2433.12 2592.82L2057.6 2593.47L2057.55 2555.78L2433.07 2555.9L2433.12 2592.82Z" fill="white"/>
<path d="M2716.34 3652.97L2182.21 3685.66L2182.15 3648.22L2716.28 3616.62L2716.34 3652.97Z" fill="white"/>
<path d="M2804 3697.87L2275.19 3731.73L2275.13 3694.48L2803.95 3661.7L2804 3697.87Z" fill="white"/>
<path d="M2804.08 3748.13L2275.27 3783.49L2275.21 3746.24L2804.03 3711.96L2804.08 3748.13Z" fill="white"/>
<path d="M3032.04 3782.51L2516.92 3818.41L2516.86 3781.65L3031.98 3746.8L3032.04 3782.51Z" fill="white"/>
<path d="M3032.12 3832.12L2517 3869.48L2516.94 3832.72L3032.06 3796.41L3032.12 3832.12Z" fill="white"/>
<path d="M3032.2 3881.73L2517.08 3920.55L2517.03 3883.79L3032.14 3846.03L3032.2 3881.73Z" fill="white"/>
<path d="M2434.74 3618.9L2059.26 3640.81L2059.2 3603.12L2434.68 3581.97L2434.74 3618.9Z" fill="white"/>
<path d="M2715.46 3097.4L2181.31 3113.45L2181.25 3076.01L2715.4 3061.05L2715.46 3097.4Z" fill="white"/>
<path d="M2803.13 3145.03L2274.29 3162.42L2274.23 3125.16L2803.07 3108.86L2803.13 3145.03Z" fill="white"/>
<path d="M2803.21 3195.29L2274.37 3214.17L2274.31 3176.92L2803.15 3159.12L2803.21 3195.29Z" fill="white"/>
<path d="M2803.29 3245.55L2274.45 3265.93L2274.39 3228.68L2803.23 3209.37L2803.29 3245.55Z" fill="white"/>
<path d="M2398.59 3312.55L2059.7 3326.57L2059.64 3288.88L2398.54 3275.55L2398.59 3312.55Z" fill="white"/>
<path d="M2557.45 3356.94L2181.72 3373.55L2181.66 3336.11L2557.4 3320.26L2557.45 3356.94Z" fill="white"/>
<path d="M2752.74 3398.71L2274.7 3421.2L2274.64 3383.94L2752.68 3362.44L2752.74 3398.71Z" fill="white"/>
<path d="M2752.82 3449.11L2274.78 3472.95L2274.72 3435.7L2752.76 3412.84L2752.82 3449.11Z" fill="white"/>
<path d="M2858.87 3493.93L2386.59 3518.82L2386.53 3481.8L2858.81 3457.87L2858.87 3493.93Z" fill="white"/>
<path d="M2858.95 3544.03L2386.67 3570.26L2386.61 3533.24L2858.89 3507.97L2858.95 3544.03Z" fill="white"/>
<path d="M2433.85 3054.56L2058.35 3064.77L2058.29 3027.08L2433.79 3017.63L2433.85 3054.56Z" fill="white"/>
<path d="M1747.96 2693.94L1406.8 2696.34L1406.71 2641.41L1747.87 2639.98L1747.96 2693.94Z" fill="white"/>
<path d="M1318.56 2696.96L1382.81 2696.51L1382.73 2641.51L1318.47 2641.77L1318.56 2696.96Z" fill="white"/>
<path d="M1748.08 2771.5L1406.92 2775.31L1406.84 2720.37L1747.99 2717.54L1748.08 2771.5Z" fill="white"/>
<path d="M1318.68 2776.29L1382.94 2775.57L1382.85 2720.57L1318.6 2721.1L1318.68 2776.29Z" fill="white"/>
<path d="M1748.2 2849.06L1407.05 2854.27L1406.96 2799.34L1748.12 2795.1L1748.2 2849.06Z" fill="white"/>
<path d="M1318.81 2855.62L1383.06 2854.64L1382.98 2799.64L1318.72 2800.43L1318.81 2855.62Z" fill="white"/>
<path d="M1749.07 3399.59L1153.07 3426.16L1152.98 3370.49L1748.98 3345.64L1749.07 3399.59Z" fill="white"/>
<path d="M1749.2 3483.9L1408.07 3500.63L1407.98 3445.7L1749.12 3429.94L1749.2 3483.9Z" fill="white"/>
<path d="M1319.83 3504.96L1384.08 3501.81L1384 3446.81L1319.75 3449.77L1319.83 3504.96Z" fill="white"/>
<path d="M1749.32 3561.46L1408.19 3579.6L1408.11 3524.67L1749.24 3507.5L1749.32 3561.46Z" fill="white"/>
<path d="M1319.96 3584.29L1384.21 3580.88L1384.12 3525.87L1319.87 3529.1L1319.96 3584.29Z" fill="white"/>
<path d="M1749.45 3639.02L1408.32 3658.57L1408.23 3603.63L1749.36 3585.06L1749.45 3639.02Z" fill="white"/>
<path d="M1320.08 3663.62L1384.33 3659.94L1384.25 3604.94L1320 3608.44L1320.08 3663.62Z" fill="white"/>
<path d="M1748.32 2927.14L1152.3 2938.73L1152.21 2883.06L1748.24 2873.19L1748.32 2927.14Z" fill="white"/>
<path d="M1748.46 3011.45L1407.31 3019.61L1407.22 2964.67L1748.37 2957.49L1748.46 3011.45Z" fill="white"/>
<path d="M1319.07 3021.72L1383.32 3020.18L1383.24 2965.18L1318.98 2966.53L1319.07 3021.72Z" fill="white"/>
<path d="M1748.58 3089.01L1407.43 3098.58L1407.35 3043.64L1748.49 3035.05L1748.58 3089.01Z" fill="white"/>
<path d="M1319.2 3101.05L1383.45 3099.25L1383.36 3044.25L1319.11 3045.86L1319.2 3101.05Z" fill="white"/>
<path d="M1748.83 3245.13L1407.68 3257.53L1407.6 3202.6L1748.74 3191.18L1748.83 3245.13Z" fill="white"/>
<path d="M1319.45 3260.74L1383.7 3258.41L1383.61 3203.4L1319.36 3205.55L1319.45 3260.74Z" fill="white"/>
<path d="M1748.95 3322.69L1407.81 3336.5L1407.72 3281.57L1748.86 3268.74L1748.95 3322.69Z" fill="white"/>
<path d="M1319.57 3340.07L1383.83 3337.47L1383.74 3282.47L1319.49 3284.89L1319.57 3340.07Z" fill="white"/>
<path d="M1748.7 3166.57L1407.56 3177.54L1407.47 3122.61L1748.62 3112.61L1748.7 3166.57Z" fill="white"/>
<path d="M1319.32 3180.38L1383.57 3178.31L1383.49 3123.31L1319.23 3125.19L1319.32 3180.38Z" fill="white"/>
<path d="M1749.57 3716.55L1153.59 3753.16L1153.5 3697.5L1749.49 3662.6L1749.57 3716.55Z" fill="white"/>
<path d="M1749.7 3800.85L1408.58 3823.34L1408.49 3768.41L1749.62 3746.9L1749.7 3800.85Z" fill="white"/>
<path d="M1320.35 3829.16L1384.59 3824.92L1384.51 3769.92L1320.26 3773.97L1320.35 3829.16Z" fill="white"/>
<path d="M1749.83 3878.41L1408.7 3902.31L1408.61 3847.37L1749.74 3824.46L1749.83 3878.41Z" fill="white"/>
<path d="M1320.47 3908.49L1384.72 3903.99L1384.63 3848.98L1320.38 3853.3L1320.47 3908.49Z" fill="white"/>
<path d="M1749.95 3955.97L1408.83 3981.27L1408.74 3926.34L1749.86 3902.02L1749.95 3955.97Z" fill="white"/>
<path d="M1320.6 3987.82L1384.84 3983.05L1384.76 3928.05L1320.51 3932.63L1320.6 3987.82Z" fill="white"/>
<path d="M1822.37 3950.87L1809.24 3951.84L1807.04 2555.7L1820.17 2555.7L1822.37 3950.87Z" fill="white"/>
<path d="M2145.08 2405.08C2145.08 2421.15 2132.88 2434.22 2117.81 2434.26C2102.72 2434.31 2090.47 2421.29 2090.47 2405.18C2090.47 2389.08 2102.72 2376.01 2117.81 2376C2132.88 2375.99 2145.08 2389.01 2145.08 2405.08Z" fill="white"/>
<path opacity="0.48" d="M875.706 4238.2L3234.95 4068.08L3246.96 4067.22C3263 4066.06 3277.58 4058.29 3288.72 4046.51C3118.95 4037.41 3013.5 3978.4 2945.47 3917.42C2808.87 3794.96 2832.56 3674.2 2685.25 3593.68C2501.51 3493.26 2357.04 3620.51 2217.61 3494.96C2133.09 3418.84 2174.59 3362.08 2070.58 3248.33C1955.37 3122.34 1880.37 3164.69 1764.6 3051.3C1618.21 2907.93 1691.42 2796.38 1565.33 2693.44C1412.36 2568.56 1247.38 2684.15 1101.77 2564.38C1038.96 2512.73 1004.5 2437.63 986.504 2357.77H875.713C833.281 2357.77 798.779 2392.77 798.779 2435.94V4165.58C798.782 4208.74 833.276 4241.25 875.706 4238.2Z" fill="white"/>
<path d="M3358.68 4057.73L851.269 4237.71L1944.55 4428.44C1957.07 4430.62 1969.76 4431.2 1982.4 4430.17L4582.1 4217L3398.56 4058.96C3385.33 4057.19 3371.98 4056.78 3358.68 4057.73Z" fill="url(#paint2_linear_7_4)"/>
<path d="M1217.14 4239.26L3304.63 4087.19L3950.69 4172.76L1881.18 4335.32L1217.14 4239.26Z" fill="#D8DEE8"/>
<path d="M3605.75 1335.18L1446.76 1265.68C1374.36 1263.35 1315.42 1319.29 1315.42 1390.64V3451.81C1315.42 3523.16 1374.36 3578.53 1446.76 3575.5L3605.75 3485.2C3668.2 3482.59 3718.63 3427.08 3718.63 3361.2V1458.09C3718.63 1392.21 3668.2 1337.19 3605.75 1335.18Z" fill="url(#paint3_linear_7_4)"/>
<path opacity="0.74" d="M1446.76 3534.43C1397.51 3536.42 1357.48 3498.72 1357.48 3450.22V1391.82C1357.48 1343.32 1397.51 1305.24 1446.76 1306.76L3605.75 1373.41C3648.29 1374.73 3682.68 1412.19 3682.68 1457.08V3362.55C3682.68 3407.45 3648.29 3445.24 3605.75 3446.97L1446.76 3534.43Z" fill="white"/>
<path d="M3605.75 1335.18L1446.76 1265.68C1374.36 1263.35 1315.42 1319.29 1315.42 1390.64V1483.31L3718.63 1543.66V1458.09C3718.63 1392.21 3668.2 1337.19 3605.75 1335.18Z" fill="url(#paint4_linear_7_4)"/>
<path d="M1548.94 1384.77C1548.94 1407.95 1529.89 1426.22 1506.36 1425.58C1482.79 1424.95 1463.66 1405.59 1463.66 1382.35C1463.66 1359.11 1482.79 1340.84 1506.36 1341.54C1529.89 1342.24 1548.94 1361.6 1548.94 1384.77Z" fill="white"/>
<path d="M1697.58 1389.01C1697.58 1412.07 1678.71 1430.26 1655.4 1429.63C1632.06 1429 1613.11 1409.73 1613.11 1386.6C1613.11 1363.47 1632.06 1345.29 1655.4 1345.98C1678.71 1346.68 1697.58 1365.94 1697.58 1389.01Z" fill="white"/>
<path d="M1844.8 1393.2C1844.8 1416.15 1826.11 1434.26 1803.03 1433.63C1779.91 1433 1761.14 1413.83 1761.14 1390.82C1761.14 1367.8 1779.91 1349.69 1803.03 1350.38C1826.11 1351.07 1844.8 1370.24 1844.8 1393.2Z" fill="white"/>
<path d="M2608.88 1741.21L1468.51 1721.13V1786.81L2608.88 1804.49V1741.21Z" fill="white"/>
<path d="M3466.23 1756.31V1817.78L3586.88 1819.65V1758.43L3466.23 1756.31Z" fill="white"/>
<path d="M1709.6 1947.47L1468.51 1944.95V1877.22L1709.6 1880.26V1947.47Z" fill="white"/>
<path d="M2997.56 1960.9L1863.51 1949.07V1882.2L2997.56 1896.49V1960.9Z" fill="white"/>
<path d="M2098.55 2064.87L1863.51 2063.29V1996.42L2098.55 1998.51V2064.87Z" fill="white"/>
<path d="M3354.99 2073.31L2248.63 2065.88V1999.85L3354.99 2009.69V2073.31Z" fill="white"/>
<path d="M2098.55 2178.22L1863.51 2177.51V2110.65L2098.55 2111.87V2178.22Z" fill="white"/>
<path d="M3354.99 2182.01L2248.63 2178.67V2112.64L3354.99 2118.38V2182.01Z" fill="white"/>
<path d="M1709.6 2291.85L1468.51 2292.02V2224.29L1709.6 2224.64V2291.85Z" fill="white"/>
<path d="M2997.56 2290.95L1863.51 2291.74V2224.87L2997.56 2226.54V2290.95Z" fill="white"/>
<path d="M2098.55 2404.92L1863.51 2405.96V2339.09L2098.55 2338.57V2404.92Z" fill="white"/>
<path d="M3354.99 2399.38L2248.63 2404.26V2338.23L3354.99 2335.75V2399.38Z" fill="white"/>
<path d="M2098.55 2518.27L1863.51 2520.18V2453.31L2098.55 2451.92V2518.27Z" fill="white"/>
<path d="M3354.99 2508.07L2248.63 2517.06V2451.02L3354.99 2444.44V2508.07Z" fill="white"/>
<path d="M2098.55 2631.63L1863.51 2634.41V2567.54L2098.55 2565.27V2631.63Z" fill="white"/>
<path d="M3354.99 2616.76L2248.63 2629.85V2563.82L3354.99 2553.13V2616.76Z" fill="white"/>
<path d="M2481.42 2739.03L2252.25 2742.59V2676.56L2481.42 2673.5V2739.03Z" fill="white"/>
<path d="M3526.68 2722.79L2627.76 2736.75V2671.54L3526.68 2659.53V2722.79Z" fill="white"/>
<path d="M1709.6 2865.81L1468.51 2870.45V2802.73L1709.6 2798.61V2865.81Z" fill="white"/>
<path d="M2997.56 2841.02L1863.51 2862.85V2795.98L2997.56 2776.62V2841.02Z" fill="white"/>
<path d="M2098.55 2971.68L1863.51 2977.07V2910.2L2098.55 2905.32V2971.68Z" fill="white"/>
<path d="M3354.99 2942.83L2248.63 2968.23V2902.2L3354.99 2879.2V2942.83Z" fill="white"/>
<path d="M2098.55 3085.03L1863.51 3091.3V3024.43L2098.55 3018.67V3085.03Z" fill="white"/>
<path d="M3354.99 3051.52L2248.63 3081.02V3014.99L3354.99 2987.89V3051.52Z" fill="white"/>
<path d="M1709.6 3210.19L1468.51 3217.52V3149.79L1709.6 3142.99V3210.19Z" fill="white"/>
<path d="M2997.56 3171.07L1863.51 3205.52V3138.65L2997.56 3106.66V3171.07Z" fill="white"/>
<path d="M2098.55 3311.73L1863.51 3319.74V3252.87L2098.55 3245.37V3311.73Z" fill="white"/>
<path d="M3354.99 3268.9L2248.63 3306.61V3240.58L3354.99 3205.27V3268.9Z" fill="white"/>
<g opacity="0.5">
<path d="M2766.54 2127.55C2514.37 1768.14 2077.9 1882.49 1801.79 1485.37C1751.99 1413.76 1718.2 1340.88 1695.03 1273.68L1446.76 1265.68C1374.36 1263.35 1315.42 1319.3 1315.42 1390.64V3451.81C1315.42 3523.16 1374.36 3578.53 1446.76 3575.5L3526.68 3488.51C3479.03 3421.2 3064.04 3171.87 2956.83 2789.07C2858.79 2438.99 2918.68 2344.4 2766.54 2127.55Z" fill="white"/>
</g>
<path d="M4058.36 2894.7C4058.36 2680.02 3856.2 2512.43 3615.41 2520.1C3478.28 2524.47 3358.98 2585.02 3284.48 2674.41C3284.47 2674.38 3284.46 2674.36 3284.45 2674.33C3283.99 2674.89 3283.56 2675.46 3283.1 2676.02C3281.81 2677.58 3280.57 2679.18 3279.31 2680.76C3277.01 2683.64 3274.74 2686.55 3272.53 2689.49C3271.23 2691.22 3269.94 2692.97 3268.67 2694.73C3266.54 2697.67 3264.47 2700.63 3262.43 2703.62C3261.27 2705.33 3260.09 2707.03 3258.96 2708.76C3256.69 2712.22 3254.51 2715.71 3252.37 2719.23C3251.59 2720.51 3250.77 2721.76 3250.02 2723.04C3247.19 2727.82 3244.48 2732.65 3241.88 2737.53C3241.19 2738.83 3240.56 2740.15 3239.89 2741.46C3238 2745.13 3236.15 2748.81 3234.39 2752.54C3233.53 2754.37 3232.71 2756.21 3231.88 2758.06C3230.4 2761.35 3228.95 2764.67 3227.57 2768.01C3226.77 2769.95 3225.98 2771.9 3225.21 2773.86C3223.87 2777.29 3222.59 2780.75 3221.36 2784.22C3220.72 2786.04 3220.05 2787.85 3219.43 2789.67C3217.96 2794.05 3216.6 2798.46 3215.3 2802.89C3215.03 2803.82 3214.72 2804.73 3214.46 2805.66C3212.96 2811.01 3211.59 2816.42 3210.35 2821.86C3209.98 2823.46 3209.68 2825.08 3209.34 2826.69C3208.51 2830.59 3207.72 2834.5 3207.03 2838.44C3206.68 2840.45 3206.36 2842.47 3206.05 2844.49C3205.48 2848.14 3204.96 2851.8 3204.51 2855.48C3204.26 2857.54 3204.01 2859.61 3203.8 2861.68C3203.39 2865.56 3203.08 2869.47 3202.82 2873.38C3202.69 2875.2 3202.53 2877.01 3202.44 2878.84C3202.14 2884.56 3201.96 2890.3 3201.96 2896.09C3201.96 3033.85 3287.14 3155.37 3414.84 3220.43C3426.58 3226.41 3438.69 3231.92 3451.13 3236.93C3457.36 3239.44 3463.68 3241.82 3470.07 3244.07C3515.02 3259.89 3563.95 3269.26 3615.41 3270.74H3615.41C3622.5 3270.94 3629.55 3270.97 3636.57 3270.87C3638.94 3270.84 3641.28 3270.71 3643.65 3270.64C3648.29 3270.51 3652.93 3270.37 3657.54 3270.11C3660.36 3269.95 3663.15 3269.7 3665.95 3269.5C3670.07 3269.19 3674.19 3268.88 3678.27 3268.48C3681.26 3268.18 3684.23 3267.81 3687.21 3267.46C3691.07 3267 3694.93 3266.53 3698.76 3265.98C3701.82 3265.54 3704.86 3265.05 3707.9 3264.56C3711.61 3263.95 3715.31 3263.32 3718.98 3262.64C3722.06 3262.06 3725.12 3261.45 3728.18 3260.82C3731.77 3260.07 3735.36 3259.29 3738.92 3258.46C3741.98 3257.75 3745.03 3257.03 3748.06 3256.26C3751.58 3255.37 3755.08 3254.42 3758.57 3253.46C3761.57 3252.62 3764.57 3251.79 3767.54 3250.9C3768.64 3250.58 3769.76 3250.3 3770.86 3249.96C3770.83 3249.93 3770.81 3249.91 3770.78 3249.88C3937.38 3198.77 4058.36 3060.21 4058.36 2894.7Z" fill="url(#paint5_linear_7_4)"/>
<path d="M4025.27 2894.76C4025.27 3108.88 3824.14 3276.71 3584.56 3269.86C3353.9 3263.26 3173.13 3096.03 3173.13 2896.14C3173.13 2696.24 3353.9 2528.43 3584.56 2521.09C3824.14 2513.45 4025.27 2680.63 4025.27 2894.76Z" fill="url(#paint6_linear_7_4)"/>
<path d="M3476.46 2998.47L3305.42 2913.2V2885.75L3476.46 2788.73V2835.47L3358.14 2897.38L3476.46 2951.92V2998.47Z" fill="white"/>
<path d="M3658.41 2750.89L3561.14 3038.84L3512.27 3038.36L3608.78 2751.54L3658.41 2750.89Z" fill="white"/>
<path d="M3694.57 2952.57L3819.57 2896.69L3694.57 2834.05V2786.48L3876.87 2884.34V2913.1L3694.57 2999.94V2952.57Z" fill="white"/>
<g opacity="0.3">
<path d="M3688.75 3176.67C3636.76 3064.56 3689.32 2960.96 3619.13 2889.05C3548.62 2816.82 3458.18 2884.34 3362.32 2826.54C3325.66 2804.44 3285.15 2762.15 3255.22 2674.91C3203.59 2737 3173.13 2813.57 3173.13 2896.14C3173.13 3096.03 3353.9 3263.26 3584.56 3269.86C3638.63 3271.4 3690.81 3264.02 3739.23 3249.12C3715.31 3224.7 3699.52 3199.89 3688.75 3176.67Z" fill="url(#paint7_linear_7_4)"/>
</g>
<path d="M2174.73 2603.06C2214.14 2561.84 2105.03 2406.98 2046.62 2339.12C1995.6 2279.84 1943.16 2218.91 1878.76 2226.62C1822.22 2233.4 1767.21 2291.8 1763.91 2347.78C1755.04 2498.36 2118.69 2661.67 2174.73 2603.06Z" fill="url(#paint8_linear_7_4)"/>
<path d="M1701.47 4194.41C1694.05 4200.32 1692.69 4215.07 1691.8 4224.72C1691.4 4229.03 1691.2 4231.18 1691.69 4232.7C1695.27 4243.8 1717.25 4244.97 1751.71 4248.42C1806.16 4253.87 1822.36 4258.06 1826.63 4250.13C1830.62 4242.69 1820.96 4230.51 1819.87 4229.16C1814.02 4221.95 1806.83 4219.32 1792.95 4214.84C1767.26 4206.56 1749.9 4202.02 1744.64 4200.65C1711.83 4192.07 1706.35 4190.53 1701.47 4194.41Z" fill="url(#paint9_linear_7_4)"/>
<path d="M1733.86 4145.68L1739.31 4206.47C1737.76 4209.4 1719.31 4218.21 1704.66 4210.66L1690.66 4150.91L1733.86 4145.68Z" fill="url(#paint10_linear_7_4)"/>
<path d="M2133.33 4186.6C2124.44 4196.22 2122.41 4213.93 2130.14 4222.66C2137.74 4231.24 2149.17 4224.8 2181.59 4225.75C2216.31 4226.77 2225.38 4234.8 2248.97 4228.43C2258.5 4225.84 2275.34 4219.58 2275.02 4212.92C2274.8 4208.23 2266.23 4205.81 2237.6 4196.41C2196.96 4183.08 2197.14 4182.35 2188.51 4180.95C2166.84 4177.43 2145.08 4173.9 2133.33 4186.6Z" fill="url(#paint11_linear_7_4)"/>
<path d="M2155.58 4131.13L2172.99 4187.87C2171.68 4190.92 2153.97 4201.07 2138.78 4194.64L2112.92 4139.56L2155.58 4131.13Z" fill="url(#paint12_linear_7_4)"/>
<path d="M2000.84 2888.38C2003.34 3079.08 2016.62 3293.49 2048.5 3526.45C2080 3756.68 2124.16 3964.72 2172.32 4147.65C2150.1 4153.5 2127.88 4159.36 2105.66 4165.22C2049.29 4113.73 1978.18 4032.68 1943.86 3918.15C1922.57 3847.06 1929.66 3810.53 1916.16 3723.09C1894.65 3583.88 1851.08 3510.94 1806.05 3398.68C1765.58 3297.79 1717.75 3149.74 1692.11 2951.84C1795.02 2930.69 1897.93 2909.53 2000.84 2888.38Z" fill="#26264F"/>
<path d="M1800.27 2870.18C1786.67 3112.72 1775.49 3359.77 1767.01 3611.2C1760.65 3799.87 1755.98 3986.14 1752.88 4169.97C1730.18 4172.71 1707.48 4175.46 1684.79 4178.2C1662.86 4138.21 1633.73 4077.06 1613.77 3998.69C1589.54 3903.5 1595.15 3846.97 1584.52 3748.32C1572.59 3637.67 1555.27 3613.56 1524.59 3473.98C1462.31 3190.71 1431.17 3049.07 1500.64 2960.96C1523.19 2932.36 1593.89 2860.61 1800.27 2870.18Z" fill="#26264F"/>
<path d="M1469.49 2260.62C1522.64 2245.98 1600.54 2228.85 1695.95 2223.57C1832.02 2216.04 1900.05 2212.27 1948.26 2244.01C2059.61 2317.32 1973.41 2486.51 2018.99 2905.93C2025.49 2965.82 2026.95 3026.15 2031.67 3086.2C2039.47 3185.64 2041.25 3191.04 2034.19 3201.11C1989.89 3264.3 1824.64 3168.99 1582.42 3206.67C1446.89 3227.75 1385.43 3276.31 1348.3 3241.28C1305 3200.43 1342.14 3090.57 1374.11 2995.99C1410.81 2887.42 1433.48 2886.03 1454.32 2804.26C1476.09 2718.81 1462.92 2674.8 1459.53 2540.04C1457.91 2475.56 1458.25 2379.6 1469.49 2260.62Z" fill="url(#paint13_linear_7_4)"/>
<path d="M1798.87 3048.01C1735.56 3043.16 1694.49 3078.22 1639.84 3050.9C1564.91 3013.43 1540.83 2896.86 1545.61 2814.36C1552.86 2689.01 1625.94 2655.97 1613.34 2574.94C1606.53 2531.12 1574.59 2472.94 1459.91 2413.51C1458.38 2463.53 1458.67 2506.17 1459.53 2540.04C1462.92 2674.81 1476.09 2718.81 1454.31 2804.26C1433.48 2886.03 1410.81 2887.42 1374.11 2995.99C1342.14 3090.57 1305 3200.44 1348.3 3241.28C1385.43 3276.31 1446.89 3227.75 1582.42 3206.67C1791.12 3174.21 1942.61 3240.39 2008.89 3218.93C1928.8 3089.29 1856.16 3052.4 1798.87 3048.01Z" fill="url(#paint14_linear_7_4)"/>
<path d="M1555.85 2269.22C1510.63 2232.83 1419.72 2274.02 1395.42 2285.03C1259.89 2346.44 1138.21 2511.9 1168.36 2686.77C1172.88 2713 1193.85 2835.66 1299.89 2895.09C1395.57 2948.72 1524.77 2934.93 1628.28 2858.97C1642.43 2846.68 1656.58 2834.39 1670.72 2822.09C1684.64 2807.35 1698.56 2792.62 1712.48 2777.88C1690.6 2760.06 1653.43 2734.34 1601.22 2717.84C1532.39 2696.08 1482.28 2735.12 1450.35 2705.44C1428.31 2684.96 1428.26 2648.79 1433.7 2626.86C1444.67 2582.67 1484.44 2570.24 1517.63 2538.88C1595.62 2465.19 1609.98 2312.79 1555.85 2269.22Z" fill="url(#paint15_linear_7_4)"/>
<path d="M2205.61 2840.08L1599.58 2831.22L1760.73 2907.4L2207.16 2878.78L2205.61 2840.08Z" fill="url(#paint16_linear_7_4)"/>
<path d="M1578.19 2846.99V2846.99C1578.19 2858.1 1585.28 2868.03 1595.94 2871.82L1789.59 2946.19L1790.48 2894.63L1599.58 2831.22C1588.86 2828.2 1578.19 2836.08 1578.19 2846.99Z" fill="url(#paint17_linear_7_4)"/>
<path d="M1671.51 2811.87C1667.79 2811.05 1689.63 2768.43 1706.77 2773.35C1723.91 2778.27 1807.77 2825.87 1815.39 2845.47C1823.01 2865.07 1823.01 2865.07 1823.01 2865.07C1823.01 2865.07 1786.43 2867.87 1763.75 2860.4C1741.07 2852.94 1701.75 2818.47 1671.51 2811.87Z" fill="url(#paint18_linear_7_4)"/>
<path d="M1706.11 2077.95C1706.44 2117.47 1701.94 2148.81 1697.69 2170.27C1692.81 2194.86 1689.29 2201.21 1684.81 2206.36C1678.06 2214.12 1667.83 2220.63 1610.02 2234.67C1578.57 2242.31 1574.52 2242.1 1573.82 2245.16C1570.44 2260.07 1656.21 2310.91 1744.83 2298.66C1799.06 2291.16 1848.41 2260.85 1845.38 2244.94C1842.33 2228.92 1788.16 2237.51 1772.01 2208.54C1760.78 2188.38 1773.37 2159.76 1788.25 2136.06C1773.84 2109.6 1720.52 2104.41 1706.11 2077.95Z" fill="url(#paint19_linear_7_4)"/>
<path d="M1806.77 2093.58C1819.57 2076.92 1820.36 2047.85 1805.61 2029.47C1792.92 2013.65 1772.95 2011.4 1760.99 2010.04C1726.34 2006.12 1682.62 2020.29 1667.42 2051.53C1658.41 2070.04 1677.9 2108.5 1680.95 2115.42C1684.4 2123.24 1690.67 2125.92 1696.47 2131.83C1704.5 2140.03 1717.08 2153.07 1737.61 2174.87C1739.2 2168.44 1741.63 2160.47 1745.48 2151.84C1746.96 2148.52 1752.92 2135.54 1761.94 2124.78C1779.99 2103.21 1794.63 2109.36 1806.77 2093.58Z" fill="#26264F"/>
<path d="M1708.32 2156.53C1708.32 2156.53 1731.1 2193.14 1776.45 2190.25C1817.06 2187.66 1823.01 2098.46 1797.07 2079.54C1788.42 2073.22 1771.09 2070.6 1757 2074.47C1748.68 2076.75 1745.86 2080.14 1732.19 2083.61C1719.58 2086.82 1716.01 2085.45 1712.21 2088.59C1707.45 2092.51 1703.96 2102.14 1711.91 2128.21C1704.16 2120.53 1694.86 2117.58 1688.28 2120.62C1687.23 2121.11 1684.44 2122.97 1682.87 2125.79C1677.19 2135.97 1686.69 2148.98 1708.32 2156.53Z" fill="url(#paint20_linear_7_4)"/>
<path d="M1710.37 2083.25C1712.33 2084.68 1706.34 2091.84 1705.9 2101.96C1705.03 2121.62 1725.34 2145.23 1746.07 2147.23C1758.32 2148.41 1761.69 2141.17 1781.95 2139.08C1794.49 2137.78 1804.93 2139.34 1811.5 2140.75C1817.86 2162.31 1811.87 2183.81 1797.16 2193.78C1781.32 2204.52 1761.08 2198.01 1752.62 2195.28C1746.96 2193.46 1728.83 2187.66 1719.35 2171.37C1709.47 2154.39 1719.16 2144.16 1707.83 2132.68C1702.12 2126.89 1694.61 2124.38 1687.31 2113.17C1685.32 2110.12 1684 2107.42 1683.19 2105.61C1693.66 2094.74 1707.53 2081.18 1710.37 2083.25Z" fill="#26264F"/>
<path d="M1774.51 2158.62C1774.51 2158.62 1783.28 2154.14 1798.44 2154.97C1799.17 2155.01 1799.99 2154.8 1800.08 2154.43C1800.43 2153.02 1790.71 2146.71 1781.75 2149.17C1775.39 2150.92 1770.44 2156.82 1771.29 2158.32C1771.66 2158.95 1773.1 2158.87 1774.51 2158.62Z" fill="white"/>
<path d="M1806.55 2532.91L1763.83 2913.9C1762.36 2927.04 1781.15 2946.63 1794.63 2946L2421.31 2908.32C2431.61 2907.84 2440.18 2900.42 2441.92 2890.46L2520.58 2522.5C2522.93 2509.11 2498.35 2495.28 2484.49 2495.66L1827.77 2513.74C1816.8 2514.05 1807.75 2522.23 1806.55 2532.91Z" fill="url(#paint21_linear_7_4)"/>
<path d="M1820.87 2544.02L1778.16 2925.01C1776.68 2938.16 1787.55 2949.48 1801.03 2948.86L2435.64 2919.43C2445.93 2918.95 2454.51 2911.53 2456.25 2901.58L2521.08 2531.93C2523.43 2518.53 2512.68 2506.39 2498.81 2506.77L1842.1 2524.86C1831.13 2525.15 1822.07 2533.34 1820.87 2544.02Z" fill="url(#paint22_linear_7_4)"/>
<path opacity="0.3" d="M2193.51 2830.15C2138.1 2807.15 2157.66 2763.28 2092.23 2708.62C2005.9 2636.5 1917.92 2667.78 1887.12 2611.88C1877.53 2594.47 1872.94 2567.39 1889.65 2523.55L1842.1 2524.86C1831.13 2525.15 1822.07 2533.34 1820.87 2544.02L1778.16 2925.01C1776.68 2938.15 1787.55 2949.48 1801.03 2948.86L2435.64 2919.43C2445.93 2918.95 2454.51 2911.53 2456.25 2901.58L2465.2 2850.57C2445.94 2840.07 2422.93 2830.53 2396.09 2825.19C2302.98 2806.7 2257.31 2856.64 2193.51 2830.15Z" fill="url(#paint23_linear_7_4)"/>
<path d="M2475.61 2866.14C2476.65 2863.07 2474.46 2859.91 2471.16 2859.75C2457.75 2859.08 2426.64 2858.8 2409.47 2869.1C2387.16 2882.49 2358.32 2906.91 2382.61 2919.24L2405.29 2930.75C2406.33 2931.28 2407.47 2931.44 2408.61 2931.2C2416.67 2929.46 2450.59 2922.09 2454.3 2920.26C2457.68 2918.59 2470.62 2880.99 2475.61 2866.14Z" fill="url(#paint24_linear_7_4)"/>
<path d="M4372.83 1613.95C4372.83 1259.98 4039.49 983.651 3642.47 996.297C3416.37 1003.5 3219.66 1103.34 3096.83 1250.72C3096.81 1250.68 3096.8 1250.64 3096.78 1250.59C3096.02 1251.51 3095.31 1252.46 3094.55 1253.38C3092.42 1255.96 3090.37 1258.59 3088.29 1261.19C3084.5 1265.95 3080.76 1270.73 3077.12 1275.58C3074.97 1278.45 3072.85 1281.33 3070.75 1284.23C3067.24 1289.07 3063.83 1293.96 3060.47 1298.89C3058.55 1301.71 3056.61 1304.52 3054.75 1307.37C3051.01 1313.06 3047.41 1318.83 3043.87 1324.63C3042.59 1326.73 3041.25 1328.8 3039.99 1330.91C3035.33 1338.78 3030.86 1346.75 3026.58 1354.81C3025.45 1356.94 3024.41 1359.13 3023.3 1361.28C3020.18 1367.32 3017.14 1373.4 3014.24 1379.55C3012.81 1382.56 3011.47 1385.6 3010.1 1388.64C3007.65 1394.08 3005.27 1399.55 3002.99 1405.06C3001.67 1408.26 3000.37 1411.47 2999.1 1414.7C2996.89 1420.35 2994.78 1426.06 2992.75 1431.78C2991.69 1434.78 2990.58 1437.76 2989.57 1440.78C2987.15 1447.99 2984.89 1455.26 2982.76 1462.58C2982.32 1464.1 2981.81 1465.6 2981.38 1467.14C2978.89 1475.96 2976.64 1484.87 2974.59 1493.84C2973.99 1496.48 2973.49 1499.15 2972.93 1501.8C2971.56 1508.24 2970.26 1514.69 2969.12 1521.19C2968.54 1524.5 2968.03 1527.83 2967.5 1531.16C2966.56 1537.17 2965.71 1543.21 2964.97 1549.28C2964.55 1552.68 2964.14 1556.09 2963.79 1559.51C2963.12 1565.9 2962.61 1572.34 2962.17 1578.79C2961.97 1581.8 2961.71 1584.78 2961.55 1587.8C2961.06 1597.23 2960.76 1606.7 2960.76 1616.24C2960.76 1843.38 3101.21 2043.75 3311.76 2151.03C3331.12 2160.89 3351.09 2169.98 3371.61 2178.23C3381.88 2182.37 3392.29 2186.29 3402.84 2190.01C3476.95 2216.09 3557.63 2231.55 3642.47 2233.97C3642.47 2233.97 3642.47 2233.97 3642.47 2233.97C3654.16 2234.31 3665.79 2234.36 3677.37 2234.2C3681.28 2234.14 3685.14 2233.93 3689.03 2233.82C3696.69 2233.6 3704.34 2233.38 3711.94 2232.95C3716.59 2232.68 3721.19 2232.27 3725.81 2231.93C3732.6 2231.43 3739.39 2230.92 3746.12 2230.25C3751.06 2229.76 3755.95 2229.14 3760.86 2228.56C3767.23 2227.81 3773.59 2227.04 3779.91 2226.13C3784.96 2225.41 3789.96 2224.6 3794.98 2223.78C3801.09 2222.79 3807.19 2221.75 3813.25 2220.62C3818.33 2219.67 3823.37 2218.66 3828.41 2217.61C3834.34 2216.38 3840.25 2215.09 3846.13 2213.73C3851.17 2212.56 3856.19 2211.36 3861.19 2210.1C3867 2208.63 3872.77 2207.07 3878.52 2205.48C3883.47 2204.11 3888.42 2202.73 3893.32 2201.27C3895.13 2200.73 3896.98 2200.27 3898.78 2199.71C3898.74 2199.67 3898.71 2199.63 3898.66 2199.58C4173.35 2115.32 4372.83 1886.85 4372.83 1613.95Z" fill="url(#paint25_linear_7_4)"/>
<path d="M4318.27 1614.04C4318.27 1967.1 3986.63 2243.82 3591.6 2232.52C3211.28 2221.64 2913.22 1945.92 2913.22 1616.32C2913.22 1286.72 3211.28 1010.03 3591.6 997.917C3986.63 985.333 4318.27 1260.98 4318.27 1614.04Z" fill="url(#paint26_linear_7_4)"/>
<path d="M3313.87 1942.28C3290.64 1941.89 3270.45 1939.07 3253.28 1933.83V1846.7C3270.89 1851.4 3286.99 1853.84 3301.58 1854.01C3324.17 1854.26 3340.38 1847.26 3350.17 1832.98C3359.97 1818.69 3364.87 1796.24 3364.87 1765.63V1299.75L3469.21 1297.34V1765.56C3469.21 1823.97 3456.01 1868.31 3429.67 1898.49C3403.42 1928.57 3364.76 1943.14 3313.87 1942.28Z" fill="white"/>
<path d="M3978.2 1739.93C3978.2 1794.3 3958.25 1836.93 3918.5 1867.73C3878.93 1898.37 3824.21 1913.13 3754.6 1912.11C3691 1911.18 3635.14 1898.53 3586.88 1874.27V1758.43C3626.53 1776.38 3660.25 1789.12 3687.95 1796.61C3715.75 1804.12 3741.25 1807.98 3764.43 1808.17C3792.34 1808.4 3813.81 1803.28 3828.81 1792.79C3843.84 1782.28 3851.35 1766.53 3851.35 1745.54C3851.35 1733.83 3848.04 1723.4 3841.42 1714.24C3834.8 1705.1 3825.09 1696.3 3812.31 1687.87C3799.54 1679.44 3773.6 1666.01 3734.57 1647.61C3698.17 1630.65 3670.98 1614.41 3652.91 1598.86C3634.88 1583.35 3620.49 1565.3 3609.77 1544.68C3599.06 1524.09 3593.7 1499.99 3593.7 1472.37C3593.7 1420.32 3611.32 1379.11 3646.65 1348.6C3682.12 1317.97 3731.45 1301.89 3794.81 1300.47C3826.12 1299.76 3856.11 1302.77 3884.75 1309.51C3913.49 1316.26 3943.64 1326.04 3975.26 1338.83L3933.33 1438.66C3900.77 1425.99 3873.95 1417.24 3852.8 1412.4C3831.7 1407.56 3811.01 1405.3 3790.7 1405.63C3766.62 1406.02 3748.2 1411.85 3735.39 1423.16C3722.59 1434.45 3716.22 1448.99 3716.22 1466.83C3716.22 1477.92 3718.81 1487.53 3723.96 1495.73C3729.12 1503.93 3737.37 1511.82 3748.67 1519.43C3759.98 1527.05 3786.85 1540.72 3829.43 1560.53C3886.06 1586.92 3925.12 1613.61 3946.31 1640.52C3967.55 1667.5 3978.2 1700.65 3978.2 1739.93Z" fill="white"/>
<g opacity="0.2">
<path d="M3763.4 2078.88C3677.68 1894.02 3764.35 1723.2 3648.6 1604.63C3532.34 1485.54 3383.23 1596.86 3225.16 1501.56C3164.72 1465.12 3097.93 1395.39 3048.58 1251.55C2963.45 1353.93 2913.21 1480.17 2913.21 1616.31C2913.21 1945.91 3211.28 2221.64 3591.6 2232.52C3680.77 2235.07 3766.79 2222.89 3846.63 2198.33C3807.19 2158.06 3781.16 2117.16 3763.4 2078.88Z" fill="url(#paint27_linear_7_4)"/>
</g>
<path d="M3032 1583C3032 1306.86 3255.86 1083 3532 1083H3719C3995.14 1083 4219 1306.86 4219 1583V1699C4219 1975.14 3995.14 2199 3719 2199H3532C3255.86 2199 3032 1975.14 3032 1699V1583Z" fill="#F0DB4F"/>
<path d="M4012.87 1723.57C4004.18 1672.65 3968.86 1629.89 3864.27 1590.01C3827.94 1574.31 3787.43 1563.06 3775.36 1537.18C3771.07 1522.11 3770.5 1513.63 3773.21 1504.5C3781 1474.91 3818.57 1465.68 3848.36 1474.16C3867.54 1480.21 3885.71 1494.11 3896.65 1516.28C3947.88 1485.09 3947.76 1485.3 3983.53 1463.87C3970.44 1444.78 3963.45 1435.97 3954.87 1427.81C3924.07 1395.45 3882.1 1378.79 3814.96 1380.07C3803.34 1381.45 3791.6 1382.93 3779.98 1384.31C3746.47 1392.27 3714.54 1408.82 3695.81 1430.99C3639.62 1490.93 3655.64 1595.84 3724.02 1639.02C3791.38 1686.54 3890.33 1697.36 3902.97 1741.81C3915.27 1796.23 3860.43 1813.84 3805.93 1807.59C3765.77 1799.73 3743.43 1780.53 3719.28 1745.63C3674.82 1769.82 3674.82 1769.82 3629.13 1794.54C3639.96 1816.81 3651.35 1826.89 3669.52 1846.2C3755.5 1928.2 3970.67 1924.17 4009.26 1800.05C4010.84 1795.81 4021.22 1767.38 4012.87 1723.57ZM3568.31 1386.64H3457.28C3457.28 1476.82 3456.83 1566.35 3456.83 1656.52C3456.83 1713.91 3459.99 1766.53 3450.06 1782.65C3433.81 1814.37 3391.73 1810.45 3372.54 1804.29C3353.02 1795.28 3343.09 1782.44 3331.59 1764.3C3328.43 1759.1 3326.06 1755.07 3325.27 1754.75C3295.14 1772.05 3265.13 1789.44 3235 1806.74C3250.01 1835.7 3272.12 1860.84 3300.44 1877.17C3342.76 1901.04 3399.62 1908.36 3459.09 1895.53C3497.79 1884.92 3531.19 1862.96 3548.67 1829.54C3573.95 1785.73 3568.53 1732.69 3568.31 1674.02C3568.87 1578.34 3568.31 1482.65 3568.31 1386.64Z" fill="#323330"/>
<defs>
<linearGradient id="paint0_linear_7_4" x1="3820.08" y1="3039.01" x2="7690.77" y2="3079.64" gradientUnits="userSpaceOnUse">
<stop stop-color="#AA80F9"/>
<stop offset="1" stop-color="#6165D7"/>
</linearGradient>
<linearGradient id="paint1_linear_7_4" x1="1703.21" y1="2182.33" x2="4995.42" y2="2216.89" gradientUnits="userSpaceOnUse">
<stop stop-color="#FF9085"/>
<stop offset="1" stop-color="#FB6FBB"/>
</linearGradient>
<linearGradient id="paint2_linear_7_4" x1="851.27" y1="4243.95" x2="4582.1" y2="4243.95" gradientUnits="userSpaceOnUse">
<stop offset="0.494" stop-color="#EBEFF2"/>
<stop offset="1" stop-color="white"/>
</linearGradient>
<linearGradient id="paint3_linear_7_4" x1="3322.76" y1="797.748" x2="1059.44" y2="5419.02" gradientUnits="userSpaceOnUse">
<stop offset="0.0036" stop-color="#E38DDD"/>
<stop offset="1" stop-color="#9571F6"/>
</linearGradient>
<linearGradient id="paint4_linear_7_4" x1="2310.78" y1="654.596" x2="2701.79" y2="2251.31" gradientUnits="userSpaceOnUse">
<stop offset="0.0036" stop-color="#E38DDD"/>
<stop offset="1" stop-color="#9571F6"/>
</linearGradient>
<linearGradient id="paint5_linear_7_4" x1="3061.81" y1="1777.84" x2="3673.13" y2="3030.25" gradientUnits="userSpaceOnUse">
<stop stop-color="#311944"/>
<stop offset="1" stop-color="#893976"/>
</linearGradient>
<linearGradient id="paint6_linear_7_4" x1="3433.48" y1="2593.83" x2="4027.89" y2="3719.34" gradientUnits="userSpaceOnUse">
<stop stop-color="#FF9085"/>
<stop offset="1" stop-color="#FB6FBB"/>
</linearGradient>
<linearGradient id="paint7_linear_7_4" x1="3264.9" y1="2667.94" x2="3841.73" y2="3849.71" gradientUnits="userSpaceOnUse">
<stop stop-color="#FF9085"/>
<stop offset="1" stop-color="#FB6FBB"/>
</linearGradient>
<linearGradient id="paint8_linear_7_4" x1="2073.6" y1="1993.08" x2="1638.18" y2="4124.36" gradientUnits="userSpaceOnUse">
<stop stop-color="#AA80F9"/>
<stop offset="0.9964" stop-color="#6165D7"/>
</linearGradient>
<linearGradient id="paint9_linear_7_4" x1="1826.87" y1="4221.6" x2="1691.25" y2="4225.6" gradientUnits="userSpaceOnUse">
<stop stop-color="#444B8C"/>
<stop offset="0.9964" stop-color="#26264F"/>
</linearGradient>
<linearGradient id="paint10_linear_7_4" x1="1739.31" y1="4179.66" x2="1690.66" y2="4179.66" gradientUnits="userSpaceOnUse">
<stop stop-color="#FFC444"/>
<stop offset="0.9964" stop-color="#F36F56"/>
</linearGradient>
<linearGradient id="paint11_linear_7_4" x1="2267.29" y1="4185.02" x2="2128.71" y2="4223.91" gradientUnits="userSpaceOnUse">
<stop stop-color="#444B8C"/>
<stop offset="0.9964" stop-color="#26264F"/>
</linearGradient>
<linearGradient id="paint12_linear_7_4" x1="2172.99" y1="4163.93" x2="2112.91" y2="4163.93" gradientUnits="userSpaceOnUse">
<stop stop-color="#FFC444"/>
<stop offset="0.9964" stop-color="#F36F56"/>
</linearGradient>
<linearGradient id="paint13_linear_7_4" x1="1916.73" y1="1961.03" x2="1481.31" y2="4092.3" gradientUnits="userSpaceOnUse">
<stop stop-color="#AA80F9"/>
<stop offset="0.9964" stop-color="#6165D7"/>
</linearGradient>
<linearGradient id="paint14_linear_7_4" x1="1527.11" y1="3780.69" x2="1692.37" y2="2979.31" gradientUnits="userSpaceOnUse">
<stop stop-color="#AA80F9"/>
<stop offset="0.9964" stop-color="#6165D7"/>
</linearGradient>
<linearGradient id="paint15_linear_7_4" x1="1606.37" y1="1897.63" x2="1170.95" y2="4028.9" gradientUnits="userSpaceOnUse">
<stop stop-color="#AA80F9"/>
<stop offset="0.9964" stop-color="#6165D7"/>
</linearGradient>
<linearGradient id="paint16_linear_7_4" x1="1992.62" y1="3085.5" x2="1921.96" y2="2881.12" gradientUnits="userSpaceOnUse">
<stop stop-color="#311944"/>
<stop offset="1" stop-color="#893976"/>
</linearGradient>
<linearGradient id="paint17_linear_7_4" x1="1672.35" y1="2790.71" x2="1698.17" y2="2972.78" gradientUnits="userSpaceOnUse">
<stop stop-color="#311944"/>
<stop offset="1" stop-color="#893976"/>
</linearGradient>
<linearGradient id="paint18_linear_7_4" x1="1823.01" y1="2819.27" x2="1671.09" y2="2819.27" gradientUnits="userSpaceOnUse">
<stop stop-color="#FFC444"/>
<stop offset="0.9964" stop-color="#F36F56"/>
</linearGradient>
<linearGradient id="paint19_linear_7_4" x1="1708.61" y1="2177.7" x2="1713.78" y2="2544.27" gradientUnits="userSpaceOnUse">
<stop stop-color="#FFC444"/>
<stop offset="0.9964" stop-color="#F36F56"/>
</linearGradient>
<linearGradient id="paint20_linear_7_4" x1="1750.76" y1="2095.64" x2="1731.02" y2="2291.36" gradientUnits="userSpaceOnUse">
<stop stop-color="#FFC444"/>
<stop offset="0.9964" stop-color="#F36F56"/>
</linearGradient>
<linearGradient id="paint21_linear_7_4" x1="2204.99" y1="2806.64" x2="2065.98" y2="2605.13" gradientUnits="userSpaceOnUse">
<stop stop-color="#444B8C"/>
<stop offset="0.9964" stop-color="#26264F"/>
</linearGradient>
<linearGradient id="paint22_linear_7_4" x1="1930.82" y1="3135.67" x2="2233.33" y2="2508.34" gradientUnits="userSpaceOnUse">
<stop stop-color="#311944"/>
<stop offset="1" stop-color="#893976"/>
</linearGradient>
<linearGradient id="paint23_linear_7_4" x1="1778.02" y1="2736.21" x2="2465.2" y2="2736.21" gradientUnits="userSpaceOnUse">
<stop stop-color="#311944"/>
<stop offset="1" stop-color="#893976"/>
</linearGradient>
<linearGradient id="paint24_linear_7_4" x1="2475.87" y1="2895.39" x2="2373.38" y2="2895.39" gradientUnits="userSpaceOnUse">
<stop stop-color="#FFC444"/>
<stop offset="0.9964" stop-color="#F36F56"/>
</linearGradient>
<linearGradient id="paint25_linear_7_4" x1="2729.68" y1="-227.585" x2="3737.64" y2="1837.44" gradientUnits="userSpaceOnUse">
<stop stop-color="#FFC444"/>
<stop offset="0.9964" stop-color="#F36F56"/>
</linearGradient>
<linearGradient id="paint26_linear_7_4" x1="3342.5" y1="1117.85" x2="4322.59" y2="2973.64" gradientUnits="userSpaceOnUse">
<stop stop-color="#FFC444"/>
<stop offset="0.9964" stop-color="#F36F56"/>
</linearGradient>
<linearGradient id="paint27_linear_7_4" x1="3064.53" y1="1240.06" x2="4015.64" y2="3188.61" gradientUnits="userSpaceOnUse">
<stop stop-color="#FFC444"/>
<stop offset="0.9964" stop-color="#F36F56"/>
</linearGradient>
</defs>
</svg>
