<svg width="3739" height="1681" viewBox="0 0 3739 1681" fill="none" xmlns="http://www.w3.org/2000/svg">
<path d="M1445.85 495.879C1443.99 464.449 1424.03 441.48 1392.4 434.482C1384.06 432.624 1376.35 432.782 1370.14 432.901C1368.84 432.94 1367.49 432.822 1366.31 432.94C1237.9 432.901 1109.45 432.901 981.005 432.94C940.838 432.94 900.711 432.94 860.544 432.94C773.727 432.901 683.984 432.901 595.664 433.059C528.021 433.178 474.412 470.103 452.194 531.776C430.727 591.473 448.082 652.791 498.647 695.844C551.623 740.913 605.627 786.496 657.891 830.537L714.544 878.334C749.215 907.629 785.033 937.873 820.733 967.287C834.056 978.238 849.633 983.654 864.893 983.654C883.553 983.654 901.818 975.628 915.181 959.933C939.217 931.666 936.252 893.199 907.985 866.395C902.174 860.9 896.283 855.997 890.59 851.253L794.166 770.05C724.506 711.341 654.807 652.672 585.227 593.885C580.048 589.536 577.28 584.12 577.597 579.02C577.834 574.948 580.008 571.587 584.041 568.939C586.729 567.199 593.41 567.199 600.527 567.199H602.187C856.393 567.239 1110.64 567.239 1364.84 567.199C1366.11 567.041 1367.3 567.199 1368.52 567.239C1377.65 567.357 1390.19 567.515 1403.39 562.099C1431.78 550.318 1447.63 525.609 1445.85 495.879Z" fill="#FFBE00"/>
<path d="M733.52 980.135C732.532 950.919 713.12 934.513 701.497 924.748C557.948 803.812 388.504 660.975 220.246 518.651C211.746 511.456 185.89 489.593 151.97 503.944C117.654 518.493 117.654 553.125 117.654 566.171C117.773 730.239 117.773 894.267 117.773 1058.33V1277.08C117.773 1299.53 125.245 1319.22 138.805 1332.58C150.586 1344.17 166.519 1350.53 183.795 1350.53C184.151 1350.53 184.507 1350.53 184.863 1350.53C223.685 1349.94 250.806 1319.5 250.806 1276.52L250.766 719.762L472.752 907.036C522.565 949.022 572.378 991.007 622.231 1032.99C644.766 1051.97 671.965 1055.61 696.832 1042.92C721.106 1030.58 734.469 1007.69 733.52 980.135Z" fill="#F7F7F7"/>
<path d="M1106.76 1255.25C1037.46 1195.76 966.298 1136.14 897.509 1078.5L874.025 1058.85C857.816 1045.25 838.484 1038.8 819.626 1040.58C802.468 1042.24 786.892 1050.66 775.782 1064.34C751.113 1094.71 755.818 1133.57 787.485 1161.08C802.033 1173.73 816.938 1186.19 831.368 1198.25C837.97 1203.78 844.612 1209.32 851.214 1214.89C867.265 1228.45 883.355 1241.93 899.485 1255.45C938.15 1287.91 978.119 1321.47 1016.98 1354.92C1022.32 1359.51 1024.81 1365.24 1023.9 1370.69C1023.35 1373.82 1021.45 1378.09 1015.28 1380.5C1012.99 1381.41 1007.81 1381.29 1002.79 1381.21C1000.81 1381.17 998.875 1381.33 996.819 1381.13C807.094 1381.17 617.368 1381.17 427.683 1381.17H247.959C245.627 1381.17 243.255 1381.13 240.922 1381.13C234.399 1381.05 227.639 1380.97 220.443 1381.41C184.072 1383.66 156.24 1411.93 155.686 1447.15C155.133 1483.09 183.993 1512.9 221.432 1515.03C224.555 1515.19 227.599 1515.27 230.485 1515.27C232.422 1515.27 234.281 1515.27 236.02 1515.23C237.641 1515.23 239.262 1515.19 240.883 1515.19C367.353 1515.19 493.823 1515.19 620.294 1515.19C661.172 1515.19 702.051 1515.19 742.929 1515.19C831.17 1515.23 919.411 1515.23 1007.61 1515.11C1072.96 1515.03 1125.66 1479.22 1148.59 1419.32C1171.09 1360.77 1154.64 1296.37 1106.76 1255.25Z" fill="#FFBE00"/>
<path d="M1483.13 1275.06C1483.13 1274.55 1483.13 1274.07 1483.09 1273.56V1272.33H1483.01C1483.01 1272.25 1483.01 1272.18 1483.01 1272.1H1483.09C1483.09 1270.83 1483.05 1250.95 1483.01 1155.87C1483.01 1132.5 1475.58 1112.97 1461.51 1099.33C1449.13 1087.31 1432.13 1081.03 1413.79 1081.5C1375.04 1082.65 1348.99 1112.65 1348.99 1156.22C1348.99 1189.07 1348.95 1213.03 1348.95 1233.08L1285.34 1179.43C1215.05 1120.13 1144.76 1060.82 1074.39 1001.6C1057.39 987.291 1037.62 980.372 1018.72 982.033C1001.84 983.535 986.263 991.916 974.917 1005.6C949.931 1035.72 955.466 1076.2 988.398 1104C1040.27 1147.8 1092.14 1191.53 1144.04 1235.29C1223.35 1302.14 1302.66 1369.03 1381.84 1436.05C1397.74 1449.49 1412.56 1453.95 1425.25 1453.95C1434.54 1453.95 1442.73 1451.54 1449.29 1448.54C1471.75 1438.22 1483.13 1418.02 1483.13 1388.45V1275.06Z" fill="#F7F7F7"/>
<path d="M1692.62 924.906C1659.93 922.692 1643.56 907.076 1643.56 875.844V673.665C1641.35 632.787 1619.01 612.703 1575.17 612.703C1531.32 612.703 1509.03 632.787 1508.27 673.665V924.906H1407.94V693.749C1407.94 581.511 1464.43 525.767 1576.67 525.767C1688.91 525.767 1743.9 581.511 1743.19 693.749V924.906H1692.62Z" fill="#F7F7F7"/>
<path d="M1839.06 419.42C1871.75 419.42 1887.37 435.787 1886.62 467.731V496.709H1787.74V419.42H1839.06ZM1839.06 531.658C1871 531.658 1886.62 547.274 1886.62 579.218V924.866H1787.74V531.658H1839.06Z" fill="#F7F7F7"/>
<path d="M2317.03 531.658L2178.03 924.866H2073.22L1934.97 531.658H2044.24L2123.78 807.41L2192.18 566.567C2199.61 543.518 2215.98 531.618 2240.49 531.618H2317.03V531.658Z" fill="#F7F7F7"/>
<path d="M2441.17 634.249H2342.29C2354.19 561.388 2405.47 525.728 2496.16 525.728C2604.68 525.728 2659.67 561.388 2661.93 634.249V768.034C2661.93 876.555 2596.5 924.866 2490.23 932.299C2395.82 939.731 2330.43 895.888 2330.43 808.912C2332.64 714.504 2401.04 689.242 2500.67 679.556C2543.05 674.337 2564.59 661.726 2564.59 640.179C2562.38 617.882 2541.54 606.733 2500.67 606.733C2465.68 606.733 2446.35 615.668 2441.17 634.249ZM2566.06 763.606V727.195C2543.01 736.841 2516.24 745.025 2487.26 750.994C2447.89 758.427 2427.8 777.008 2427.8 805.986C2430.02 837.219 2446.39 852.084 2477.62 852.084C2532.61 852.044 2566.06 819.349 2566.06 763.606Z" fill="#F7F7F7"/>
<path d="M2823.23 467.77V924.906H2724.35V419.42H2775.63C2801.68 419.42 2823.23 441.717 2823.23 467.77Z" fill="#F7F7F7"/>
<path d="M3241.7 469.233V754.671C3241.7 872.879 3179.98 931.587 3057.35 930.836C2935.46 928.622 2874.5 862.442 2874.5 731.622C2874.5 597.838 2926.53 529.444 3031.34 525.728C3080.4 525.728 3118.31 545.811 3143.57 586.69V419.459H3192.64C3219.4 419.42 3241.7 442.468 3241.7 469.233ZM2976.34 727.155C2975.59 806.698 3002.36 846.825 3058.85 846.825C3115.35 846.825 3143.57 806.698 3143.57 727.155C3141.36 651.328 3113.84 614.166 3060.31 614.166C3006.78 614.166 2979.31 651.368 2976.34 727.155Z" fill="#F7F7F7"/>
<path d="M3640.88 730.16C3640.88 865.446 3580.66 933.841 3461.75 933.841C3342.83 933.841 3283.37 865.446 3283.37 730.16C3283.37 593.371 3342.83 525.728 3461.75 525.728C3580.66 525.728 3640.88 593.371 3640.88 730.16ZM3383.7 730.16C3384.46 806.738 3410.47 845.363 3460.99 845.363C3511.56 845.363 3536.82 805.235 3537.57 727.155C3537.57 650.577 3512.31 612.703 3461.75 612.703C3409.72 612.703 3383.7 652.079 3383.7 730.16Z" fill="#F7F7F7"/>
<path d="M1920.1 1298.27C1961.73 1298.27 1982.53 1286.37 1982.53 1261.11C1982.53 1241.02 1948.33 1224.69 1880.69 1212.79C1793.71 1197.18 1749.12 1158.51 1748.37 1096.84C1748.37 1012.12 1815.26 971.951 1905.2 970.489C1955.76 970.489 1995.89 981.637 2025.62 1003.93C2054.6 1026.98 2070.22 1058.93 2072.43 1099.81H2010.01C1986.96 1099.05 1972.09 1090.87 1966.16 1075.29C1959.48 1058.22 1939.4 1048.53 1906.7 1048.53C1868.04 1048.53 1848.7 1058.93 1848.7 1079.01C1848.7 1099.09 1873.97 1114.71 1925.28 1124.36C1992.17 1137.72 2036.02 1154.84 2057.6 1174.92C2076.19 1194.25 2085.12 1218.05 2085.12 1244.78C2085.12 1341.4 2009.29 1377.1 1905.24 1377.1C1850.25 1377.1 1808.62 1365.2 1781.85 1342.15C1752.12 1319.85 1737.26 1285.66 1737.26 1240.31H1838.35C1840.56 1283.4 1871.79 1298.27 1920.1 1298.27Z" fill="#F7F7F7"/>
<path d="M2482.8 1174.88C2482.8 1310.17 2422.59 1378.56 2303.67 1378.56C2184.75 1378.56 2125.29 1310.17 2125.29 1174.88C2125.29 1038.09 2184.75 970.449 2303.67 970.449C2422.59 970.449 2482.8 1038.09 2482.8 1174.88ZM2225.59 1174.88C2226.34 1251.46 2252.35 1290.08 2302.88 1290.08C2353.44 1290.08 2378.7 1249.96 2379.45 1171.92C2379.45 1095.34 2354.19 1057.42 2303.63 1057.42C2251.64 1057.42 2225.59 1096.84 2225.59 1174.88Z" fill="#F7F7F7"/>
<path d="M2861.14 1212.79C2861.14 1280.44 2844.06 1325.03 2809.11 1346.58C2774.16 1366.66 2735.54 1377.06 2693.16 1377.06C2652.28 1377.06 2615.87 1365.91 2581.67 1343.61C2547.47 1322.07 2530.4 1278.94 2530.4 1212.79V976.419H2629.27V1232.88C2629.27 1276.72 2651.57 1298.27 2696.16 1298.27C2740.76 1298.27 2763.06 1276.72 2763.06 1232.88V1025.48C2762.3 992.786 2777.92 976.419 2810.61 976.419H2861.18V1212.79H2861.14Z" fill="#F7F7F7"/>
<path d="M2916.17 1008.36V976.379H3238.02V1060.39L3029.16 1284.11H3243.99V1369.59H2904.31V1291.59L3114.67 1058.93H2966.74C2937.72 1058.93 2916.17 1037.34 2916.17 1008.36Z" fill="#F7F7F7"/>
<path d="M3397.82 1078.97H3298.94C3310.84 1006.11 3362.12 970.449 3452.81 970.449C3561.33 970.449 3616.32 1006.15 3618.58 1078.97V1212.76C3618.58 1321.28 3553.15 1369.59 3446.88 1377.02C3352.47 1384.45 3287.08 1340.61 3287.08 1253.63C3289.3 1159.23 3357.69 1133.96 3457.32 1124.32C3499.7 1119.1 3521.24 1106.49 3521.24 1084.94C3519.03 1062.64 3498.2 1051.49 3457.32 1051.49C3422.37 1051.49 3403.04 1060.39 3397.82 1078.97ZM3522.71 1208.33V1171.92C3499.66 1181.56 3472.89 1189.75 3443.92 1195.72C3404.54 1203.15 3384.46 1221.73 3384.46 1250.71C3386.67 1281.94 3403.04 1296.81 3434.27 1296.81C3489.26 1296.77 3522.71 1264.07 3522.71 1208.33Z" fill="#F7F7F7"/>
</svg>
