<?xml version="1.0" encoding="utf-8"?>
<!-- Generator: Adobe Illustrator 26.0.0, SVG Export Plug-In . SVG Version: 6.00 Build 0)  -->
<svg version="1.1" id="Camada_1_cópia" xmlns="http://www.w3.org/2000/svg" xmlns:xlink="http://www.w3.org/1999/xlink" x="0px"
	 y="0px" viewBox="0 0 945.76 425.2" style="enable-background:new 0 0 945.76 425.2;" xml:space="preserve">
<style type="text/css">
	.st0{display:none;fill:#032628;}
	.st1{fill:#C30D2B;}
	.st2{fill:#022C59;}
	.st3{fill:#2D2D2D;}
</style>
<g id="Camada_3">
</g>
<rect y="0" class="st0" width="945.76" height="425.2"/>
<g id="Camada_5">
</g>
<path class="st1" d="M365.72,125.43c-0.47-7.95-5.52-13.76-13.52-15.53c-2.11-0.47-4.06-0.43-5.63-0.4
	c-0.33,0.01-0.67-0.02-0.97,0.01c-32.48-0.01-64.97-0.01-97.46,0c-10.16,0-20.31,0-30.47,0c-21.96-0.01-44.66-0.01-67,0.03
	c-17.11,0.03-30.67,9.37-36.29,24.97c-5.43,15.1-1.04,30.61,11.75,41.5c13.4,11.4,27.06,22.93,40.28,34.07l14.33,12.09
	c8.77,7.41,17.83,15.06,26.86,22.5c3.37,2.77,7.31,4.14,11.17,4.14c4.72,0,9.34-2.03,12.72-6c6.08-7.15,5.33-16.88-1.82-23.66
	c-1.47-1.39-2.96-2.63-4.4-3.83l-24.39-20.54c-17.62-14.85-35.25-29.69-52.85-44.56c-1.31-1.1-2.01-2.47-1.93-3.76
	c0.06-1.03,0.61-1.88,1.63-2.55c0.68-0.44,2.37-0.44,4.17-0.44l0.42,0c64.3,0.01,128.61,0.01,192.91,0c0.32-0.04,0.62,0,0.93,0.01
	c2.31,0.03,5.48,0.07,8.82-1.3C362.16,139.2,366.17,132.95,365.72,125.43z"/>
<path class="st2" d="M185.54,247.92c-0.25-7.39-5.16-11.54-8.1-14.01c-36.31-30.59-79.17-66.72-121.73-102.72
	c-2.15-1.82-8.69-7.35-17.27-3.72c-8.68,3.68-8.68,12.44-8.68,15.74c0.03,41.5,0.03,82.99,0.03,124.49l0,55.33
	c0,5.68,1.89,10.66,5.32,14.04c2.98,2.93,7.01,4.54,11.38,4.54c0.09,0,0.18,0,0.27,0c9.82-0.15,16.68-7.85,16.68-18.72l-0.01-140.83
	l56.15,47.37c12.6,10.62,25.2,21.24,37.81,31.86c5.7,4.8,12.58,5.72,18.87,2.51C182.4,260.68,185.78,254.89,185.54,247.92z"/>
<path class="st1" d="M279.95,317.51c-17.53-15.05-35.53-30.13-52.93-44.71l-5.94-4.97c-4.1-3.44-8.99-5.07-13.76-4.62
	c-4.34,0.42-8.28,2.55-11.09,6.01c-6.24,7.68-5.05,17.51,2.96,24.47c3.68,3.2,7.45,6.35,11.1,9.4c1.67,1.4,3.35,2.8,5.02,4.21
	c4.06,3.43,8.13,6.84,12.21,10.26c9.78,8.21,19.89,16.7,29.72,25.16c1.35,1.16,1.98,2.61,1.75,3.99c-0.14,0.79-0.62,1.87-2.18,2.48
	c-0.58,0.23-1.89,0.2-3.16,0.18c-0.5-0.01-0.99,0.03-1.51-0.02c-47.99,0.01-95.98,0.01-143.96,0.01H62.72
	c-0.59,0-1.19-0.01-1.78-0.01c-1.65-0.02-3.36-0.04-5.18,0.07c-9.2,0.57-16.24,7.72-16.38,16.63c-0.14,9.09,7.16,16.63,16.63,17.17
	c0.79,0.04,1.56,0.06,2.29,0.06c0.49,0,0.96,0,1.4-0.01c0.41,0,0.82-0.01,1.23-0.01c31.99,0,63.98,0,95.97,0
	c10.34,0,20.68,0,31.02,0c22.32,0.01,44.64,0.01,66.95-0.02c16.53-0.02,29.86-9.08,35.66-24.23
	C296.22,344.2,292.06,327.91,279.95,317.51z"/>
<path class="st2" d="M375.15,322.52c0-0.13,0-0.25-0.01-0.38l0-0.31h-0.02c0-0.02,0-0.04,0-0.06h0.02c0-0.32-0.01-5.35-0.02-29.4
	c0-5.91-1.88-10.85-5.44-14.3c-3.13-3.04-7.43-4.63-12.07-4.51c-9.8,0.29-16.39,7.88-16.39,18.9c0,8.31-0.01,14.37-0.01,19.44
	l-16.09-13.57c-17.78-15-35.56-30-53.36-44.98c-4.3-3.62-9.3-5.37-14.08-4.95c-4.27,0.38-8.21,2.5-11.08,5.96
	c-6.32,7.62-4.92,17.86,3.41,24.89c13.12,11.08,26.24,22.14,39.37,33.21c20.06,16.91,40.12,33.83,60.15,50.78
	c4.02,3.4,7.77,4.53,10.98,4.53c2.35,0,4.42-0.61,6.08-1.37c5.68-2.61,8.56-7.72,8.56-15.2L375.15,322.52z"/>
<g>
	<path class="st3" d="M428.14,233.95c-8.27-0.56-12.41-4.51-12.41-12.41V170.4c-0.56-10.34-6.21-15.42-17.3-15.42
		s-16.73,5.08-16.92,15.42v63.55h-25.38v-58.47c0-28.39,14.29-42.49,42.68-42.49s42.3,14.1,42.12,42.49v58.47H428.14z"/>
	<path class="st3" d="M465.18,106.09c8.27,0,12.22,4.14,12.03,12.22v7.33h-25.01v-19.55H465.18z M465.18,134.48
		c8.08,0,12.03,3.95,12.03,12.03v87.43h-25.01v-99.46H465.18z"/>
	<path class="st3" d="M586.08,134.48l-35.16,99.46h-26.51l-34.97-99.46h27.64l20.12,69.75l17.3-60.92
		c1.88-5.83,6.02-8.84,12.22-8.84H586.08z"/>
	<path class="st3" d="M617.48,160.43h-25.01c3.01-18.43,15.98-27.45,38.92-27.45c27.45,0,41.36,9.02,41.93,27.45v33.84
		c0,27.45-16.55,39.67-43.43,41.55c-23.88,1.88-40.42-9.21-40.42-31.21c0.56-23.88,17.86-30.27,43.06-32.72
		c10.72-1.32,16.17-4.51,16.17-9.96c-0.56-5.64-5.83-8.46-16.17-8.46C623.68,153.47,618.79,155.73,617.48,160.43z M649.07,193.15
		v-9.21c-5.83,2.44-12.6,4.51-19.93,6.02c-9.96,1.88-15.04,6.58-15.04,13.91c0.56,7.9,4.7,11.66,12.6,11.66
		C640.61,215.52,649.07,207.25,649.07,193.15z"/>
	<path class="st3" d="M714.12,118.32v115.63h-25.01V106.09h12.97C708.67,106.09,714.12,111.73,714.12,118.32z"/>
	<path class="st3" d="M819.97,118.69v72.2c0,29.9-15.61,44.75-46.63,44.56c-30.83-0.56-46.25-17.3-46.25-50.39
		c0-33.84,13.16-51.14,39.67-52.08c12.41,0,22,5.08,28.39,15.42v-42.3h12.41C814.33,106.09,819.97,111.92,819.97,118.69z
		 M752.85,183.93c-0.19,20.12,6.58,30.27,20.87,30.27c14.29,0,21.43-10.15,21.43-30.27c-0.56-19.18-7.52-28.58-21.06-28.58
		S753.6,164.76,752.85,183.93z"/>
	<path class="st3" d="M920.94,184.69c0,34.22-15.23,51.52-45.31,51.52s-45.12-17.3-45.12-51.52c0-34.6,15.04-51.71,45.12-51.71
		S920.94,150.09,920.94,184.69z M855.89,184.69c0.19,19.37,6.77,29.14,19.55,29.14c12.79,0,19.18-10.15,19.37-29.9
		c0-19.37-6.39-28.95-19.18-28.95C862.47,154.98,855.89,164.94,855.89,184.69z"/>
</g>
<g>
	<path class="st3" d="M485.68,328.39c10.53,0,15.79-3.01,15.79-9.4c0-5.08-8.65-9.21-25.76-12.22c-22-3.95-33.28-13.73-33.47-29.33
		c0-21.43,16.92-31.59,39.67-31.96c12.79,0,22.94,2.82,30.46,8.46c7.33,5.83,11.28,13.91,11.84,24.25h-15.79
		c-5.83-0.19-9.59-2.26-11.09-6.2c-1.69-4.32-6.77-6.77-15.04-6.77c-9.78,0-14.67,2.63-14.67,7.71s6.39,9.03,19.37,11.47
		c16.92,3.38,28.01,7.71,33.47,12.79c4.7,4.89,6.96,10.91,6.96,17.67c0,24.44-19.18,33.47-45.5,33.47
		c-13.91,0-24.44-3.01-31.21-8.84c-7.52-5.64-11.28-14.29-11.28-25.76H465C465.56,324.63,473.46,328.39,485.68,328.39z"/>
	<path class="st3" d="M628.01,297.18c0,34.22-15.23,51.52-45.31,51.52s-45.12-17.3-45.12-51.52c0-34.6,15.04-51.71,45.12-51.71
		S628.01,262.58,628.01,297.18z M562.95,297.18c0.19,19.37,6.77,29.14,19.55,29.14c12.79,0,19.18-10.15,19.37-29.89
		c0-19.37-6.39-28.96-19.18-28.96C569.54,267.47,562.95,277.44,562.95,297.18z"/>
	<path class="st3" d="M723.71,306.77c0,17.11-4.32,28.39-13.16,33.84c-8.84,5.08-18.61,7.71-29.33,7.71
		c-10.34,0-19.55-2.82-28.2-8.46c-8.65-5.45-12.97-16.36-12.97-33.09v-59.79h25.01v64.87c0,11.09,5.64,16.54,16.92,16.54
		s16.92-5.45,16.92-16.54v-52.46c-0.19-8.27,3.76-12.41,12.03-12.41h12.79V306.77z"/>
	<path class="st3" d="M737.63,255.06v-8.09h81.41v21.25l-52.83,56.59h54.34v21.62h-85.92V326.7l53.21-58.85h-37.42
		C743.08,267.85,737.63,262.39,737.63,255.06z"/>
	<path class="st3" d="M859.46,272.92h-25.01c3.01-18.43,15.98-27.45,38.92-27.45c27.45,0,41.36,9.03,41.93,27.45v33.84
		c0,27.45-16.55,39.67-43.43,41.55c-23.88,1.88-40.42-9.21-40.42-31.21c0.56-23.88,17.86-30.27,43.06-32.71
		c10.72-1.32,16.17-4.51,16.17-9.96c-0.56-5.64-5.83-8.46-16.17-8.46C865.67,265.97,860.78,268.22,859.46,272.92z M891.05,305.64
		v-9.21c-5.83,2.44-12.6,4.51-19.93,6.02c-9.96,1.88-15.04,6.58-15.04,13.91c0.56,7.9,4.7,11.66,12.6,11.66
		C882.59,328.01,891.05,319.74,891.05,305.64z"/>
</g>
</svg>
